<?xml version="1.0" standalone="no"?>
<!DOCTYPE svg PUBLIC "-//W3C//DTD SVG 20010904//EN" "http://www.w3.org/TR/2001/REC-SVG-20010904/DTD/svg10.dtd">
<svg width="499.20953065156937mm" height="323.217898607254mm"  viewBox="0 0 499.20953065156937 323.217898607254" xmlns="http://www.w3.org/2000/svg">
    <title>Bezier Curve : BiegeForm.Cut</title>
    <desc>This is an exported Bezier xml_path from Blender, using the ExportScript by maybites.ch and Craxic</desc>
<path style="fill:none;stroke:#000000;stroke-width:1px;stroke-linecap:butt;stroke-linejoin:miter;stroke-opacity:1" d="M492.1971877887845,-845.7086059451103 C491.8521066978574,-846.996543109417 491.50699580460787,-848.2844206690788 491.16191471368074,-849.5723578333855 C491.5483018234372,-849.6758911013603 491.9346591308713,-849.7794243693352 492.32104624062777,-849.88295763731 C492.1226223781705,-850.6234857439995 491.9241985157132,-851.3640734553337 491.72577465325594,-852.1046015620232 C491.33938754349947,-852.0010682940483 490.9529706314206,-851.8975350260735 490.56658352166414,-851.7940017580986 C490.3336485698819,-852.6633355021477 490.1007136180997,-853.532609641552 489.86777866631746,-854.401943385601 C488.90188539773226,-854.1431400179863 487.93599212914705,-853.8843366503716 486.97009886056185,-853.6255332827568 C487.2030338123441,-852.7561995387077 487.4359687641263,-851.8869253993034 487.6689037159085,-851.0175916552544 C487.28251660615206,-850.9140583872795 486.8960996940732,-850.8104655146599 486.50971258431673,-850.706932246685 C486.708136446774,-849.9664041399956 486.90659011155367,-849.2258760333061 487.10501397401094,-848.4853479266167 C487.4914010837674,-848.5888811945915 487.8777881935239,-848.6923548579216 488.26417530328035,-848.7958881258965 C488.6092563942075,-847.5080105662346 488.954367287457,-846.220073401928 489.2994483783841,-844.9321958422661 C473.4131714180112,-840.6754705309868 457.5268646553159,-836.4187452197075 441.64058769494295,-832.1620199084282 C441.29547680169344,-833.4498974680901 440.9503957107663,-834.7378346323967 440.6052848175168,-836.0257121920586 C440.9916719272733,-836.1292454600334 441.37808883935213,-836.232838332653 441.7644759491086,-836.3363716006279 C441.5660520866513,-837.0768997073174 441.36759842187166,-837.8174278140068 441.1691745594144,-838.5579559206963 C440.7827874496579,-838.4544226527214 440.39637053757906,-838.3509489893913 440.0099834278226,-838.2474157214165 C439.77704847604036,-839.1167494654655 439.54411352425814,-839.9860236048698 439.3111785724759,-840.8553573489189 C438.3452853038907,-840.5965539813042 437.3793920353055,-840.3377506136894 436.4134987667203,-840.0789472460747 C436.6464337185025,-839.2096135020256 436.87936867028475,-838.3403393626213 437.112303622067,-837.4710056185722 C436.7259165123105,-837.3674723505974 436.33949960023165,-837.2638794779778 435.9531124904752,-837.1603462100029 C436.15153635293245,-836.4198181033134 436.3499900177121,-835.679289996624 436.5484138801694,-834.9387618899345 C436.93480098992586,-835.0422951579094 437.3212179020047,-835.1457688212395 437.7076050117612,-835.2493020892143 C438.0527159050107,-833.9614245295525 438.3977969959378,-832.6734873652458 438.74290788918734,-831.385609805584 C422.8566309288144,-827.1288844943047 406.9703241661191,-822.8721591830254 391.0840472057462,-818.6154338717461 C390.73896611481905,-819.9033710360527 390.39385522156954,-821.1912485957146 390.0487741306424,-822.4791857600212 C390.4351612403989,-822.5827190279961 390.82151854783297,-822.6862522959709 391.20790565758944,-822.7897855639458 C391.00948179513216,-823.5303136706352 390.8110579326749,-824.2708417773247 390.6126340702176,-825.0113698840141 C390.22624696046114,-824.9078366160393 389.83988965302706,-824.8043629527092 389.4535025432706,-824.7008296847343 C389.22056759148836,-825.5701634287834 388.98763263970613,-826.4394375681877 388.7546976879239,-827.3087713122368 C387.7887746170163,-827.049967944622 386.8228813484311,-826.7911645770073 385.8569582775235,-826.5323612093925 C386.08989322930574,-825.6630274653435 386.32282818108797,-824.7936937212944 386.5557631328702,-823.9243599772453 C386.1693760231137,-823.8208267092705 385.78295911103487,-823.7172934412956 385.3965720012784,-823.6137601733208 C385.5949958637357,-822.8732320666313 385.79341972619295,-822.1326443552971 385.9918435886502,-821.3921162486076 C386.3782306984067,-821.4956495165825 386.76464761048555,-821.5991827845573 387.151034720242,-821.7027160525322 C387.49611581116915,-820.4148384928703 387.84122670441866,-819.1269013285637 388.1863077953458,-817.8390237689018 C372.30003083497286,-813.5822984576225 356.4137836769223,-809.3255731463432 340.5275067165494,-805.0688478350639 C340.1823958232999,-806.3567849993706 339.83731473237276,-807.6446625590324 339.49220383912325,-808.9325997233391 C339.87856114655733,-809.0361329913139 340.2649482563138,-809.1396662592888 340.6513055637479,-809.2431995272636 C340.4528817012906,-809.9837276339531 340.25445783883333,-810.7242557406425 340.05603397637606,-811.464783847332 C339.669676668942,-811.3612505793571 339.2832895591855,-811.2577769160271 338.8969322517514,-811.1542436480522 C338.6639972999692,-812.0235773921013 338.4310325458646,-812.8928515315056 338.19809759408236,-813.7621852755547 C337.23217452317476,-813.5033819079399 336.26628125458956,-813.2445785403252 335.30035818368196,-812.9857751727104 C335.5332931354642,-812.1164414286613 335.7662280872464,-811.2471076846123 335.99916303902864,-810.3777739405632 C335.6127759292722,-810.2742406725883 335.2264186218381,-810.1707074046135 334.8400315120816,-810.0671741366386 C335.0384553745389,-809.3266460299492 335.2368792369962,-808.586058318615 335.43530309945345,-807.8455302119255 C335.8216902092099,-807.9490634799004 336.208047516644,-808.0525967478752 336.59443462640047,-808.1561300158501 C336.9395157173276,-806.8682524561882 337.2846266105771,-805.5803152918816 337.62970770150423,-804.2924377322197 C321.7434605434537,-800.0357124209404 305.85718358308077,-795.7789871096611 289.97092152386904,-791.5222617983818 C289.6258404329419,-792.8101989626884 289.2807444408536,-794.0980765223503 288.9356633499265,-795.386013686657 C289.32203555852175,-795.4895469546318 289.7084226682782,-795.5930802226067 290.0947948768735,-795.6966134905815 C289.896356113255,-796.437141597271 289.69791734963655,-797.1776697039604 289.4994785860181,-797.9181978106499 C289.1131063774228,-797.814664542675 288.72671926766634,-797.7111908793449 288.34034705907106,-797.6076576113701 C288.10741210728884,-798.4769913554192 287.8744771555066,-799.3462654948235 287.6415422037244,-800.2155992388725 C286.675634033978,-799.9567958712578 285.7097109630704,-799.697992503643 284.743802793324,-799.4391891360283 C284.976722843945,-798.5698553919792 285.20965779572725,-797.7005216479301 285.4425778463483,-796.8311879038811 C285.056205637753,-796.7276546359062 284.66981852799654,-796.6241213679314 284.28344631940126,-796.5205880999565 C284.48188508301973,-795.7800599932671 284.6803238466382,-795.0394722819328 284.8787626102567,-794.2989441752434 C285.26513481885195,-794.4024774432182 285.6515219286084,-794.5060107111931 286.0378941372037,-794.6095439791679 C286.3829752281308,-793.3216664195061 286.72807122021914,-792.0337292551994 287.07315231114626,-790.7458516955376 C271.1868902519345,-786.4891263842583 255.3006281927228,-782.232401072979 239.41436613351107,-777.9756757616997 C239.06927014142275,-779.2636129260063 238.72418905049562,-780.5514904856682 238.3790930584073,-781.8394276499748 C238.76546526700258,-781.9429609179497 239.15185237675905,-782.0464941859245 239.53822458535433,-782.1500274538994 C239.33980072289705,-782.8905555605888 239.14136195927858,-783.6310836672783 238.9429380968213,-784.3716117739677 C238.55656588822603,-784.2680785059929 238.17017877846956,-784.1646048426628 237.7838065698743,-784.061071574688 C237.55087161809206,-784.930405318737 237.31792176514864,-785.7996794581413 237.0849868133664,-786.6690132021904 C236.11906374245882,-786.4102098345757 235.15314067155123,-786.1514064669609 234.18721760064363,-785.8926030993462 C234.42015255242586,-785.0232693552971 234.65310240536928,-784.153935611248 234.8860373571515,-783.284601867199 C234.49966514855623,-783.1810685992241 234.11327803879976,-783.0775353312492 233.7269058302045,-782.9740020632744 C233.92532969266176,-782.2334739565849 234.12376845628023,-781.4928862452507 234.3221923187375,-780.7523581385612 C234.70856452733278,-780.8558914065361 235.09495163708925,-780.959424674511 235.48132384568453,-781.0629579424858 C235.82641983777285,-779.775080382824 236.17150092869997,-778.4871432185173 236.5165969207883,-777.1992656588554 C220.63031996041536,-772.9425403475761 204.74404300004244,-768.6858150362968 188.8577660396695,-764.4290897250175 C188.5126700475812,-765.7169970870018 188.16755915433168,-767.0048746466637 187.82246316224337,-768.2927820086479 C188.20885027199984,-768.3963152766228 188.5952373817563,-768.49987834692 188.98162449151278,-768.6034116148949 C188.7831857278943,-769.3439397215843 188.58476186543703,-770.0844380259514 188.38632310181856,-770.8249661326408 C187.99995089322329,-770.721432864666 187.613578684628,-770.6179592013359 187.22720647603273,-770.514425933361 C186.9942715242505,-771.3837596774101 186.76133657246828,-772.2530934214592 186.52840162068605,-773.1224271655083 C185.56247109919786,-772.8636237978935 184.59654802829027,-772.604760825634 183.63061750680208,-772.3459574580193 C183.8635599091649,-771.4766237139702 184.09649486094713,-770.6072899699211 184.32943726330996,-769.737956225872 C183.94305760413408,-769.6344229578972 183.5566853955388,-769.5308896899223 183.17030573636293,-769.4273564219475 C183.3687295988202,-768.6867985129356 183.56715346127748,-767.9462704062462 183.76557732373476,-767.2057124972343 C184.15196443349123,-767.3092457652092 184.5383440926671,-767.4128088355064 184.92473120242357,-767.5163421034813 C185.2698271945119,-766.2284645438194 185.6149157360196,-764.9405571818352 185.96001172810793,-763.6526796221733 C177.68796736747026,-760.7908222079277 169.415915556252,-757.9289349913597 161.14387119561434,-755.0670775771141 C154.13256938010454,-751.5983554720879 147.12127501517534,-748.1296333670616 140.10997319966555,-744.6609112620354 C139.4432952478528,-745.8156022429466 138.77662474662066,-746.9702932238579 138.1099467948079,-748.1249842047691 C138.45636899024248,-748.3250173926353 138.80279863625765,-748.5250207781792 139.14922083169222,-748.7250539660454 C138.7658810093999,-749.3889901041985 138.38254863768816,-750.0529262423515 137.99920881539583,-750.7168623805046 C137.65279407054186,-750.5168589949608 137.30638677626848,-750.3168854117393 136.9599720314145,-750.1168820261955 C136.5099718645215,-750.8963021636009 136.0599716976285,-751.6757521033287 135.6099715307355,-752.4551722407341 C134.74394584447145,-751.9551488757133 133.877927608788,-751.455155313015 133.01190192252398,-750.9551319479942 C133.46190208941698,-750.1757118105888 133.91190970689058,-749.3962916731834 134.3619098737836,-748.616871535778 C134.01548767834902,-748.4168681502342 133.66907293349504,-748.2168647646904 133.32265073806047,-748.0168613791466 C133.7059831097722,-747.3528954386711 134.08931548148394,-746.688959300518 134.47264785319567,-746.0249933600426 C134.81907004863024,-746.2249967455864 135.1654847934842,-746.4250299334526 135.51190698891878,-746.6250333189964 C136.17857749015093,-745.4703423380852 136.84524054080248,-744.3156513571739 137.51191104203463,-743.1609603762627 C130.4897909834981,-738.4083542227745 123.46766719967127,-733.6557778716087 116.44554714113474,-728.9031717181206 C110.3435663357377,-723.5852751135826 104.24158180505037,-718.2673785090446 98.13960099965334,-712.9494819045067 C97.1967859044671,-713.8922783732414 96.25396708399057,-714.8350748419762 95.31115198880434,-715.7778713107109 C95.59400210529566,-716.0607251524925 95.87684849649668,-716.3436087965965 96.159698612988,-716.6264626383781 C95.61758319288492,-717.1685668826103 95.07547149807215,-717.7106711268425 94.53335607796907,-718.2527753710747 C94.25051341205835,-717.9699215292931 93.96766702085733,-717.6870974898338 93.68482435494661,-717.4042436480522 C93.04842556267977,-718.0406424403191 92.41202677041292,-718.6770412325859 91.77562797814608,-719.3134400248528 C91.06852317601442,-718.6063203215599 90.36141837388277,-717.8992304205894 89.65431357175112,-717.1921107172966 C90.29071236401796,-716.5557119250298 90.92711115628481,-715.9193131327629 91.56350994855165,-715.2829143404961 C91.28066169470549,-715.0000604987144 90.99781157821417,-714.7172364592552 90.714963324368,-714.4343826174736 C91.25707688182592,-713.8922783732414 91.799192301929,-713.3501443266869 92.34130585938692,-712.8080400824547 C92.62415597587824,-713.0908939242363 92.90700236707926,-713.3737477660179 93.18985248357058,-713.6566016077995 C94.13266385346651,-712.7138051390648 95.07547522336245,-711.7709788680077 96.01828659325838,-710.8281823992729 C90.68767557293177,-704.7154578566551 85.35706827789545,-698.6027333140373 80.02645725756884,-692.4900087714195 C75.2865888029337,-685.4786249995232 70.54672127962112,-678.4672412276268 65.80685282498598,-671.4558574557304 C64.65214694291353,-672.1225056052208 63.49744106084108,-672.7891835570335 62.342735178768635,-673.4558317065239 C62.54273856431246,-673.8022539019585 62.74274194985628,-674.148676097393 62.942745335400105,-674.4950982928276 C62.278794296085835,-674.8784157633781 61.614843256771564,-675.2617630362511 60.950892217457294,-675.6450805068016 C60.75088883191347,-675.298658311367 60.55088544636965,-674.9522659182549 60.350882060825825,-674.6058437228203 C59.57145691756159,-675.0558289885521 58.792032007128,-675.5058440566063 58.012606747448444,-675.9558293223381 C57.51260806247592,-675.0898036360741 57.01260984316468,-674.22377794981 56.51261115819216,-673.357752263546 C57.292036417871714,-672.9077669978142 58.07146121188998,-672.45775192976 58.85088647156954,-672.0077666640282 C58.650883086025715,-671.6613444685936 58.45087970048189,-671.3149520754814 58.25087631493807,-670.9685298800468 C58.9148324765265,-670.5851826071739 59.578788288868964,-670.2018651366234 60.24274433404207,-669.8185178637505 C60.442747719585896,-670.164940059185 60.64275110512972,-670.5113622546196 60.84275449067354,-670.8577844500542 C61.997455483302474,-670.1911064982414 63.15215624310076,-669.5244583487511 64.3068572357297,-668.8577803969383 C60.83704292215407,-661.8460389971733 57.36722884140909,-654.8343273997307 53.89741452783346,-647.8225859999657 C51.036658868193626,-639.5509812235832 48.175904139876366,-631.2793466448784 45.31514848023653,-623.0077418684959 C44.027246706187725,-623.3528229594231 42.73934306949377,-623.6979338526726 41.451441295444965,-624.0430149435997 C41.55496897548437,-624.4294020533562 41.658498518168926,-624.8157593607903 41.76202619820833,-625.2021464705467 C41.021483190357685,-625.400570333004 40.28094018250704,-625.5989941954613 39.54039717465639,-625.7974180579185 C39.436869494616985,-625.4110309481621 39.33333995193243,-625.024673640728 39.229812271893024,-624.6382865309715 C38.36047852784395,-624.8712214827538 37.49114478379488,-625.104156434536 36.62181103974581,-625.3370913863182 C36.36299277096987,-624.3711683154106 36.10417450219393,-623.405245244503 35.84535623341799,-622.4393221735954 C36.71468997746706,-622.2063872218132 37.58402372151613,-621.973452270031 38.453357465565205,-621.7405173182487 C38.3498297855258,-621.3541302084923 38.246300242841244,-620.9677729010582 38.14277256280184,-620.5813857913017 C38.883315570652485,-620.3829619288445 39.62385857850313,-620.1845380663872 40.36440158635378,-619.9861142039299 C40.467929266393185,-620.3725013136864 40.57145880907774,-620.7588586211205 40.674986489117146,-621.1452457308769 C41.96288826316595,-620.8001646399498 43.250791899859905,-620.4550537467003 44.53869367390871,-620.1099726557732 C42.99353825300932,-612.3296293616295 41.44838283210993,-604.5493158698082 39.90322741121054,-596.7689725756645 C39.28914497047663,-588.1482633948326 38.67506252974272,-579.5275244116783 38.06098008900881,-570.9068152308464 C36.72764653712511,-570.9068152308464 35.39431298524141,-570.9068152308464 34.060979433357716,-570.9068152308464 C34.060979433357716,-571.306822001934 34.060979433357716,-571.7068287730217 34.060979433357716,-572.1068355441093 C33.294312827289104,-572.1068355441093 32.52764622122049,-572.1068355441093 31.760979615151882,-572.1068355441093 C31.760979615151882,-571.7068287730217 31.760979615151882,-571.306822001934 31.760979615151882,-570.9068152308464 C30.86097928136587,-570.9068152308464 29.96097708493471,-570.9068152308464 29.0609767511487,-570.9068152308464 C29.0609767511487,-569.9068281054497 29.0609767511487,-568.9068111777306 29.0609767511487,-567.9068240523338 C29.96097708493471,-567.9068240523338 30.86097928136587,-567.9068240523338 31.760979615151882,-567.9068240523338 C31.760979615151882,-567.5068172812462 31.760979615151882,-567.1068105101585 31.760979615151882,-566.7068037390709 C32.52764622122049,-566.7068037390709 33.294312827289104,-566.7068037390709 34.060979433357716,-566.7068037390709 C34.060979433357716,-567.1068105101585 34.060979433357716,-567.5068172812462 34.060979433357716,-567.9068240523338 C35.39431298524141,-567.9068240523338 36.72764653712511,-567.9068240523338 38.06098008900881,-567.9068240523338 C38.060987539589405,-565.0734874606133 38.06099499017,-562.2401508688927 38.0610024407506,-559.4068142771721 C35.394335336983204,-559.4068142771721 32.72766823321581,-559.4068142771721 30.061001129448414,-559.4068142771721 C30.061001129448414,-552.7401539683342 30.061001129448414,-546.0734638571739 30.061001129448414,-539.406803548336 C20.060999490320683,-539.406803548336 10.06100157648325,-539.406803548336 0.06099993735551834,-539.406803548336 C0.06099993735551834,-629.4068071246147 0.06099993735551834,-719.406780898571 0.06099993735551834,-809.4067546725273 C164.84613174945116,-827.146050632 329.631241209805,-844.8854061961174 494.41638792306185,-862.6247021555901 C496.034445412457,-857.6599928736687 497.65247309952974,-852.6952239871025 499.2705305889249,-847.7305147051811 C496.91274965554476,-847.0565649867058 494.55496872216463,-846.3825556635857 492.1971877887845,-845.7086059451103 Z "/>
<path style="fill:none;stroke:#000000;stroke-width:1px;stroke-linecap:butt;stroke-linejoin:miter;stroke-opacity:1" d="M20.06073499470949,-556.4068230986595 C20.06073499470949,-559.1674420237541 17.821336336433887,-561.4067587256432 15.06072486191988,-561.4067587256432 C12.300113387405872,-561.4067587256432 10.060714729130268,-559.1674420237541 10.060714729130268,-556.4068230986595 C10.060714729130268,-553.6462041735649 12.300113387405872,-551.4068874716759 15.06072486191988,-551.4068874716759 C17.821336336433887,-551.4068874716759 20.06073499470949,-553.6462041735649 20.06073499470949,-556.4068230986595 Z "/>
<path style="fill:none;stroke:#000000;stroke-width:1px;stroke-linecap:butt;stroke-linejoin:miter;stroke-opacity:1" d="M18.310731448233128,-654.4066044688225 C18.310787327587605,-656.2010619044304 16.85518229752779,-657.6567861437798 15.06072486191988,-657.6567861437798 C13.26626742631197,-657.6567861437798 11.810662396252155,-656.2010619044304 11.810718275606632,-654.4066044688225 C11.81077415496111,-652.6122662425041 13.266379185020924,-651.1568400263786 15.06072486191988,-651.1568400263786 C16.855070538818836,-651.1568400263786 18.31067556887865,-652.6122662425041 18.310731448233128,-654.4066044688225 Z "/>
<path style="fill:none;stroke:#000000;stroke-width:1px;stroke-linecap:butt;stroke-linejoin:miter;stroke-opacity:1" d="M18.310731448233128,-774.4066092371941 C18.310787327587605,-776.201066672802 16.85518229752779,-777.6567909121513 15.06072486191988,-777.6567909121513 C13.26626742631197,-777.6567909121513 11.810662396252155,-776.201066672802 11.810718275606632,-774.4066092371941 C11.81077415496111,-772.6122710108757 13.266379185020924,-771.1568447947502 15.06072486191988,-771.1568447947502 C16.855070538818836,-771.1568447947502 18.31067556887865,-772.6122710108757 18.310731448233128,-774.4066092371941 Z "/>
</svg>