<?xml version="1.0" standalone="no"?>
<!DOCTYPE svg PUBLIC "-//W3C//DTD SVG 20010904//EN" "http://www.w3.org/TR/2001/REC-SVG-20010904/DTD/svg10.dtd">
<svg width="434.77776646614075mm" height="430.00003695487976mm"  viewBox="0 0 434.77776646614075 430.00003695487976" xmlns="http://www.w3.org/2000/svg">
    <title>Bezier Curve : TableBottomCore.Cut</title>
    <desc>This is an exported Bezier xml_path from Blender, using the ExportScript by maybites.ch and Craxic</desc>
<path style="fill:none;stroke:#000000;stroke-width:1px;stroke-linecap:butt;stroke-linejoin:miter;stroke-opacity:1" d="M0.21738886833190918,430.2150369733572 C0.21738886833190918,263.5483169108629 0.21738886833190918,133.5483328551054 0.21738886833190918,0.21500001847743988 C164.9951446056366,0.21500001847743988 270.10624438524246,0.21500001847743988 434.99515533447266,0.21500001847743988 C434.99515533447266,133.5483477562666 434.99515533447266,263.5483318120241 434.99515533447266,430.2150369733572 C270.10624438524246,430.2150369733572 164.9951446056366,430.2150369733572 0.21738886833190918,430.2150369733572 Z "/>
<path style="fill:none;stroke:#000000;stroke-width:1px;stroke-linecap:butt;stroke-linejoin:miter;stroke-opacity:1" d="M15.38404405117035,265.2150117903948 C15.38404405117035,231.88168044388294 15.38404405117035,198.5483565479517 15.38404405117035,165.21502520143986 C12.485529780387878,165.21502520143986 9.587000608444214,165.21502520143986 6.688486337661743,165.21502520143986 C6.688486337661743,198.5483565479517 6.688486337661743,231.88168044388294 6.688486337661743,265.2150117903948 C9.587000608444214,265.2150117903948 12.485529780387878,265.2150117903948 15.38404405117035,265.2150117903948 Z "/>
<path style="fill:none;stroke:#000000;stroke-width:1px;stroke-linecap:butt;stroke-linejoin:miter;stroke-opacity:1" d="M8.04863452911377,325.2150178998709 C8.04863452911377,323.4079093784094 9.5325368642807,321.96011255681515 11.339645385742188,321.96011255681515 C13.146753907203674,321.96011255681515 14.630656242370605,323.4079093784094 14.630656242370605,325.2150178998709 C14.630656242370605,327.02211897075176 13.14673900604248,328.469878539443 11.339645385742188,328.469878539443 C9.532551765441895,328.469878539443 8.04863452911377,327.02211897075176 8.04863452911377,325.2150178998709 Z "/>
<path style="fill:none;stroke:#000000;stroke-width:1px;stroke-linecap:butt;stroke-linejoin:miter;stroke-opacity:1" d="M8.04863452911377,145.2150256484747 C8.04863452911377,143.4079171270132 9.5325368642807,141.96012030541897 11.339645385742188,141.96012030541897 C13.146753907203674,141.96012030541897 14.630656242370605,143.4079171270132 14.630656242370605,145.2150256484747 C14.630656242370605,147.02212671935558 13.14673900604248,148.46988628804684 11.339645385742188,148.46988628804684 C9.532551765441895,148.46988628804684 8.04863452911377,147.02212671935558 8.04863452911377,145.2150256484747 Z "/>
<path style="fill:none;stroke:#000000;stroke-width:1px;stroke-linecap:butt;stroke-linejoin:miter;stroke-opacity:1" d="M15.38404405117035,385.21500538289547 C15.38404405117035,371.8816847652197 15.38404405117035,358.5483492463827 15.38404405117035,345.21502862870693 C12.485529780387878,345.21502862870693 9.587000608444214,345.21502862870693 6.688486337661743,345.21502862870693 C6.688486337661743,358.5483492463827 6.688486337661743,371.8816847652197 6.688486337661743,385.21500538289547 C9.587000608444214,385.21500538289547 12.485529780387878,385.21500538289547 15.38404405117035,385.21500538289547 Z "/>
<path style="fill:none;stroke:#000000;stroke-width:1px;stroke-linecap:butt;stroke-linejoin:miter;stroke-opacity:1" d="M15.38404405117035,85.2150232642889 C15.38404405117035,71.88170264661312 15.38404405117035,58.548367127776146 15.38404405117035,45.215046510100365 C12.485529780387878,45.215046510100365 9.587000608444214,45.215046510100365 6.688486337661743,45.215046510100365 C6.688486337661743,58.548367127776146 6.688486337661743,71.88170264661312 6.688486337661743,85.2150232642889 C9.587000608444214,85.2150232642889 12.485529780387878,85.2150232642889 15.38404405117035,85.2150232642889 Z "/>
<path style="fill:none;stroke:#000000;stroke-width:1px;stroke-linecap:butt;stroke-linejoin:miter;stroke-opacity:1" d="M167.0506852865219,15.215030416846275 C200.75439244508743,15.215030416846275 234.45809215307236,15.215030416846275 268.1617993116379,15.215030416846275 C268.1617955863476,12.348359927535057 268.161788135767,9.481689438223839 268.1617844104767,6.6150189489126205 C234.45808842778206,6.6150189489126205 200.75439617037773,6.6150189489126205 167.0507001876831,6.6150189489126205 C167.0506964623928,9.481689438223839 167.0506890118122,12.348359927535057 167.0506852865219,15.215030416846275 Z "/>
<path style="fill:none;stroke:#000000;stroke-width:1px;stroke-linecap:butt;stroke-linejoin:miter;stroke-opacity:1" d="M106.38401985168457,7.960236176848412 C108.19112837314606,7.960236176848412 109.67508286237717,9.40795849263668 109.67509031295776,11.215067014098167 C109.67509776353836,13.022175535559654 108.19113582372665,14.469927653670311 106.38401985168457,14.469927653670311 C104.57691878080368,14.469927653670311 103.09298664331436,13.022175535559654 103.09299409389496,11.215067014098167 C103.09300154447556,9.407973393797874 104.57692623138428,7.960236176848412 106.38401985168457,7.960236176848412 Z "/>
<path style="fill:none;stroke:#000000;stroke-width:1px;stroke-linecap:butt;stroke-linejoin:miter;stroke-opacity:1" d="M288.384008705616,7.960221275687218 C290.1911172270775,7.960206374526024 291.6750791668892,9.40795849263668 291.6750791668892,11.215067014098167 C291.6750791668892,13.022175535559654 290.1911172270775,14.469927653670311 288.384008705616,14.469912752509117 C286.5769150853157,14.469897851347923 285.0929978489876,13.02216063439846 285.0929978489876,11.215067014098167 C285.0929978489876,9.407973393797874 286.5769150853157,7.960236176848412 288.384008705616,7.960221275687218 Z "/>
<path style="fill:none;stroke:#000000;stroke-width:1px;stroke-linecap:butt;stroke-linejoin:miter;stroke-opacity:1" d="M45.71735441684723,15.215060219168663 C59.19883728027344,15.215060219168663 72.68030524253845,15.21504531800747 86.16178810596466,15.21504531800747 C86.16178810596466,12.348374828696251 86.16178810596466,9.481719240546227 86.16178810596466,6.615048751235008 C72.68030524253845,6.615048751235008 59.19883728027344,6.615033850073814 45.71735441684723,6.615033850073814 C45.71735441684723,9.481704339385033 45.71735441684723,12.348389729857445 45.71735441684723,15.215060219168663 Z "/>
<path style="fill:none;stroke:#000000;stroke-width:1px;stroke-linecap:butt;stroke-linejoin:miter;stroke-opacity:1" d="M349.05066668987274,15.215015515685081 C362.53214955329895,15.215015515685081 376.01361751556396,15.215015515685081 389.4951003789902,15.215015515685081 C389.4951003789902,12.348345026373863 389.495085477829,9.481674537062645 389.495085477829,6.615004047751427 C376.01361751556396,6.615004047751427 362.53214955329895,6.615004047751427 349.05068159103394,6.615004047751427 C349.05068159103394,9.481674537062645 349.05066668987274,12.348345026373863 349.05066668987274,15.215015515685081 Z "/>
<path style="fill:none;stroke:#000000;stroke-width:1px;stroke-linecap:butt;stroke-linejoin:miter;stroke-opacity:1" d="M419.82847034931183,165.21499167382717 C419.82847034931183,198.548323020339 419.82847034931183,231.88165436685085 419.82847034931183,265.2149857133627 C422.7269995212555,265.2149857133627 425.62551379203796,265.2149857133627 428.5240429639816,265.2149857133627 C428.5240429639816,231.88165809214115 428.5240578651428,198.5483341962099 428.5240578651428,165.21500657498837 C425.62552869319916,165.21500284969807 422.7269995212555,165.21499539911747 419.82847034931183,165.21499167382717 Z "/>
<path style="fill:none;stroke:#000000;stroke-width:1px;stroke-linecap:butt;stroke-linejoin:miter;stroke-opacity:1" d="M427.1638649702072,105.21498928964138 C427.1638649702072,107.02209781110287 425.6799626350403,108.4698946326971 423.8728541135788,108.4698946326971 C422.0657455921173,108.4698946326971 420.5818283557892,107.02209781110287 420.5818432569504,105.21498928964138 C420.5818581581116,103.4078807681799 422.0657753944397,101.96012119948864 423.8728839159012,101.96012865006924 C425.6799775362015,101.96013610064983 427.1638649702072,103.40789566934109 427.1638649702072,105.21498928964138 Z "/>
<path style="fill:none;stroke:#000000;stroke-width:1px;stroke-linecap:butt;stroke-linejoin:miter;stroke-opacity:1" d="M427.1638798713684,285.21498154103756 C427.1638947725296,287.02209006249905 425.6799775362015,288.4698868840933 423.87286901474,288.4698868840933 C422.0657604932785,288.4698868840933 420.5818432569504,287.02209006249905 420.5818581581116,285.21498154103756 C420.58187305927277,283.40788792073727 422.0657753944397,281.9601358026266 423.87286901474,281.9601358026266 C425.6799626350403,281.9601358026266 427.1638649702072,283.40788792073727 427.1638798713684,285.21498154103756 Z "/>
<path style="fill:none;stroke:#000000;stroke-width:1px;stroke-linecap:butt;stroke-linejoin:miter;stroke-opacity:1" d="M419.82841074466705,45.21498690545559 C419.82842564582825,58.548322424292564 419.82842564582825,71.88164304196835 419.82844054698944,85.21497856080532 C422.7269697189331,85.21497856080532 425.6254839897156,85.21497856080532 428.52401316165924,85.21497856080532 C428.52401316165924,71.88164304196835 428.52401316165924,58.548322424292564 428.52401316165924,45.21498690545559 C425.6254839897156,45.21498690545559 422.7269399166107,45.21498690545559 419.82841074466705,45.21498690545559 Z "/>
<path style="fill:none;stroke:#000000;stroke-width:1px;stroke-linecap:butt;stroke-linejoin:miter;stroke-opacity:1" d="M419.8285001516342,345.21496902406216 C419.8285001516342,358.54830454289913 419.8285001516342,371.8816251605749 419.8285001516342,385.2149606794119 C422.7270293235779,385.2149606794119 425.62554359436035,385.2149457782507 428.524072766304,385.2149457782507 C428.524072766304,371.8816251605749 428.524072766304,358.54830454289913 428.524072766304,345.21498392522335 C425.62554359436035,345.21498392522335 422.7270293235779,345.21496902406216 419.8285001516342,345.21496902406216 Z "/>
<path style="fill:none;stroke:#000000;stroke-width:1px;stroke-linecap:butt;stroke-linejoin:miter;stroke-opacity:1" d="M268.16185891628265,415.21499167382717 C234.45815175771713,415.21499167382717 200.7544520497322,415.21500657498837 167.0507448911667,415.21500657498837 C167.0507448911667,418.0816770642996 167.0507448911667,420.948362454772 167.0507448911667,423.8150329440832 C200.7544445991516,423.8150478452444 234.45814430713654,423.8150478452444 268.16184401512146,423.8150627464056 C268.16184774041176,420.9483773559332 268.16185519099236,418.0816770642996 268.16185891628265,415.21499167382717 Z "/>
<path style="fill:none;stroke:#000000;stroke-width:1px;stroke-linecap:butt;stroke-linejoin:miter;stroke-opacity:1" d="M328.82852435112,422.46980081498623 C327.0214158296585,422.46980081498623 325.5374613404274,421.02207849919796 325.5374538898468,419.2149699777365 C325.5374464392662,417.407861456275 327.0214083790779,415.96010933816433 328.82852435112,415.96010933816433 C330.6356254220009,415.96010933816433 332.1195575594902,417.407861456275 332.1195501089096,419.2149699777365 C332.119542658329,421.02206359803677 330.6356179714203,422.46980081498623 328.82852435112,422.46980081498623 Z "/>
<path style="fill:none;stroke:#000000;stroke-width:1px;stroke-linecap:butt;stroke-linejoin:miter;stroke-opacity:1" d="M146.82853549718857,422.4698157161474 C145.02142697572708,422.4698306173086 143.53746503591537,421.02207849919796 143.53746503591537,419.2149699777365 C143.53746503591537,417.407861456275 145.02142697572708,415.96010933816433 146.82853549718857,415.9601242393255 C148.63562911748886,415.9601391404867 150.119546353817,417.4078763574362 150.119546353817,419.2149699777365 C150.119546353817,421.02206359803677 148.63562911748886,422.46980081498623 146.82853549718857,422.4698157161474 Z "/>
<path style="fill:none;stroke:#000000;stroke-width:1px;stroke-linecap:butt;stroke-linejoin:miter;stroke-opacity:1" d="M389.49520468711853,415.2149320691824 C376.0137218236923,415.2149469703436 362.5322389602661,415.2149469703436 349.0507560968399,415.2149618715048 C349.0507560968399,418.081632360816 349.0507560968399,420.9483177512884 349.0507560968399,423.81498824059963 C362.5322389602661,423.81498824059963 376.0137218236923,423.81498824059963 389.49520468711853,423.81498824059963 C389.49520468711853,420.9483028501272 389.49520468711853,418.0816174596548 389.49520468711853,415.2149320691824 Z "/>
<path style="fill:none;stroke:#000000;stroke-width:1px;stroke-linecap:butt;stroke-linejoin:miter;stroke-opacity:1" d="M86.16187751293182,415.21505127847195 C72.68039464950562,415.21505127847195 59.1989266872406,415.21505127847195 45.71744382381439,415.21505127847195 C45.717458724975586,418.08172176778316 45.717458724975586,420.9484071582556 45.71747362613678,423.8150776475668 C59.1989266872406,423.8150776475668 72.68039464950562,423.8150776475668 86.16184771060944,423.8150776475668 C86.16186261177063,420.9484071582556 86.16186261177063,418.08172176778316 86.16187751293182,415.21505127847195 Z "/>
<path style="fill:none;stroke:#000000;stroke-width:1px;stroke-linecap:butt;stroke-linejoin:miter;stroke-opacity:1" d="M176.15069776773453,215.21501849591732 C176.15069776773453,192.451771825552 194.76560086011887,174.2151961773634 217.6062572002411,174.21501736342907 C240.33400185406208,174.21483854949474 256.02848410606384,194.21501691639423 256.02848410606384,200.21501789987087 C256.02848410606384,205.21501778811216 231.8395772203803,207.95738744735718 227.71736841648817,205.21501778811216 C228.7284792587161,207.2150181159377 229.73959103226662,209.21501797810197 230.75070187449455,211.21501830592752 C248.950704485178,211.21501830592752 281.30625516176224,211.21501830592752 285.3507059812546,211.21501830592752 C290.40625274181366,211.21501830592752 290.40625274181366,219.21501868590713 285.3507059812546,219.21501868590713 C281.30626261234283,219.21501868590713 248.950704485178,219.21501868590713 230.75070187449455,219.21501868590713 C229.73959103226662,221.21501901373267 228.7284792587161,223.21501887589693 227.71736841648817,225.21501920372248 C231.69884227216244,222.13202157244086 256.02848410606384,225.21501920372248 256.02848410606384,230.21501909196377 C256.02848410606384,236.2150200754404 240.1449489593506,256.21672208607197 217.6062572002411,256.21501962840557 C194.57641199231148,256.2132799178362 176.15069776773453,237.97826516628265 176.15069776773453,215.21501849591732 Z "/>
<path style="fill:none;stroke:#000000;stroke-width:1px;stroke-linecap:butt;stroke-linejoin:miter;stroke-opacity:1" d="M251.8859426677227,178.81500954926014 C251.8859426677227,177.42866139113903 253.02436530590057,176.3179921656847 254.41071346402168,176.3179921656847 C255.7970578968525,176.3179921656847 256.93547308444977,177.42866511642933 256.93547308444977,178.81500954926014 C256.93547308444977,180.20135770738125 255.7970616221428,181.31203065812588 254.41071346402168,181.31203065812588 C253.02436158061028,181.31203065812588 251.8859426677227,180.20136143267155 251.8859426677227,178.81500954926014 Z "/>
<path style="fill:none;stroke:#000000;stroke-width:1px;stroke-linecap:butt;stroke-linejoin:miter;stroke-opacity:1" d="M254.41071718931198,249.11800260841846 C255.7970616221428,249.11800260841846 256.93547680974007,250.2286718338728 256.93547680974007,251.6150162667036 C256.93547680974007,253.00136069953442 255.7970616221428,254.11203365027905 254.41071718931198,254.11203365027905 C253.02436903119087,254.11203365027905 251.8859501183033,253.001368150115 251.8859501183033,251.6150199919939 C251.8859501183033,250.2286718338728 253.02436903119087,249.11800260841846 254.41071718931198,249.11800260841846 Z "/>
<path style="fill:none;stroke:#000000;stroke-width:1px;stroke-linecap:butt;stroke-linejoin:miter;stroke-opacity:1" d="M183.32657918334007,251.6150348931551 C183.32657918334007,253.0013793259859 182.1881639957428,254.11205227673054 180.801819562912,254.11205227673054 C179.41547140479088,254.11205227673054 178.2770599424839,253.0013830512762 178.2770562171936,251.6150348931551 C178.2770524919033,250.2286904603243 179.41546022891998,249.11801005899906 180.8018046617508,249.11800633370876 C182.1881565451622,249.11800260841846 183.32657918334007,250.2286830097437 183.32657918334007,251.6150348931551 Z "/>
<path style="fill:none;stroke:#000000;stroke-width:1px;stroke-linecap:butt;stroke-linejoin:miter;stroke-opacity:1" d="M180.8017860352993,181.31204183399677 C179.4154416024685,181.31204183399677 178.27702641487122,180.20137260854244 178.27702641487122,178.81502817571163 C178.27702641487122,177.42868374288082 179.4154416024685,176.3180145174265 180.8017860352993,176.3180107921362 C182.1881341934204,176.3180070668459 183.32656055688858,177.42866884171963 183.32656428217888,178.81501699984074 C183.32656800746918,180.20136888325214 182.1881379187107,181.31204183399677 180.8017860352993,181.31204183399677 Z "/>
<path style="fill:none;stroke:#000000;stroke-width:1px;stroke-linecap:butt;stroke-linejoin:miter;stroke-opacity:1" d="M271.1951504647732,309.2150227278471 C285.01367151737213,295.54835568368435 298.8321888446808,281.8816886395216 312.65070617198944,268.21502159535885 C333.2099723815918,288.5483563989401 353.76922369003296,308.8816912025213 374.3284898996353,329.21502600610256 C360.50997257232666,342.8816855996847 346.691455245018,356.54836009442806 332.87293791770935,370.2150196880102 C312.313671708107,349.881684884429 291.75441294908524,329.54835753142834 271.1951504647732,309.2150227278471 Z "/>
<path style="fill:none;stroke:#000000;stroke-width:1px;stroke-linecap:butt;stroke-linejoin:miter;stroke-opacity:1" d="M262.63067081570625,317.71502505242825 C263.96883979439735,316.3915635198355 265.30700877308846,315.0681094378233 266.64517775177956,313.7446479052305 C287.19445645809174,334.06811068952084 307.743723988533,354.39156602323055 328.2929989695549,374.71502135694027 C326.9548299908638,376.03848288953304 325.6166684627533,377.361959323287 324.2784994840622,378.6854208558798 C303.7292245030403,358.3619506210089 283.17994952201843,338.03849528729916 262.63067081570625,317.71502505242825 Z "/>
<path style="fill:none;stroke:#000000;stroke-width:1px;stroke-linecap:butt;stroke-linejoin:miter;stroke-opacity:1" d="M317.2306749224663,263.7150199264288 C318.5688439011574,262.3915621191263 319.9070128798485,261.06810058653355 321.2451818585396,259.74464277923107 C341.79445683956146,280.0680981129408 362.34373927116394,300.3915534466505 382.8930068016052,320.7150087803602 C381.5548378229141,322.0384777635336 380.2166837453842,323.36193929612637 378.8785147666931,324.68540827929974 C358.32923233509064,304.3619454950094 337.77995735406876,284.0384827107191 317.2306749224663,263.7150199264288 Z "/>
<path style="fill:none;stroke:#000000;stroke-width:1px;stroke-linecap:butt;stroke-linejoin:miter;stroke-opacity:1" d="M333.9481312036514,75.2166570276022 C333.9481312036514,61.3531828969717 345.3322905302048,50.2464831918478 359.19576466083527,50.2464831918478 C373.05923879146576,50.2464831918478 384.4433981180191,61.3531828969717 384.4433981180191,75.2166570276022 C384.4433981180191,89.08013115823269 373.05923879146576,100.18684576451778 359.19576466083527,100.18684576451778 C345.3322905302048,100.18684576451778 333.9481312036514,89.08013115823269 333.9481312036514,75.2166570276022 Z "/>
</svg>