<?xml version="1.0" standalone="no"?>
<!DOCTYPE svg PUBLIC "-//W3C//DTD SVG 20010904//EN" "http://www.w3.org/TR/2001/REC-SVG-20010904/DTD/svg10.dtd">
<svg width="417.5000786781311mm" height="123.00007790327072mm"  viewBox="0 0 417.5000786781311 123.00007790327072" xmlns="http://www.w3.org/2000/svg">
    <title>Bezier Curve : TableCoreFront.002</title>
    <desc>This is an exported Bezier xml_path from Blender, using the ExportScript by maybites.ch and Craxic</desc>
<path style="fill:none;stroke:#000000;stroke-width:1px;stroke-linecap:butt;stroke-linejoin:miter;stroke-opacity:1" d="M406.1952151656151,106.02307283505797 C406.1952151656151,104.36670213192701 407.53880816698074,103.02306023612618 409.19517654180527,103.02305208705366 C410.851559817791,103.02304393798113 412.1951975226402,104.36668536812067 412.1951975226402,106.02307283505797 C412.1951975226402,107.6794519200921 410.851559817791,109.02307192981243 409.19517654180527,109.02306354790926 C407.53880816698074,109.02305516600609 406.1952151656151,107.67943515628576 406.1952151656151,106.02307283505797 Z "/>
<path style="fill:none;stroke:#000000;stroke-width:1px;stroke-linecap:butt;stroke-linejoin:miter;stroke-opacity:1" d="M354.7025092244148,188.02306066453457 C354.7025092244148,192.02306132018566 354.70249432325363,196.02306197583675 354.70249432325363,200.02306263148785 C361.3691695332527,200.02306263148785 368.0358298420906,200.02306263148785 374.7025050520897,200.02306263148785 C374.7025050520897,173.3563990443945 374.7025050520897,146.68973545730114 374.7025050520897,120.02307187020779 C389.0358574986458,120.02307187020779 403.3691950440407,120.02307187020779 417.70254749059677,120.02307187020779 C417.70256239175797,108.35641074180603 417.70256239175797,96.68975054472685 417.70257729291916,85.02308941632509 C403.302571952343,85.02306985855103 388.9025517106056,85.02304936945438 374.50254637002945,85.02302981168032 C374.50254637002945,82.35638785362244 374.50254637002945,79.68974496424198 374.50254637002945,77.02310393750668 C361.13587695360184,77.02310393750668 347.7692224383354,77.02310393750668 334.4025530219078,77.02310393750668 C334.402567923069,79.68974496424198 334.4025828242302,82.35638785362244 334.4025977253914,85.02302981168032 C328.6025889515877,85.02302981168032 322.80258762836456,85.02302981168032 317.00257885456085,85.02302981168032 C317.00257140398026,90.35638357698917 317.00255650281906,95.6897382736206 317.00254905223846,101.02309262100607 C317.33588057756424,101.02308272570372 317.6692195534706,101.02307271398604 318.0025510787964,101.02306281868368 C319.0025531053543,101.02309262100607 319.0025531053543,101.02309262100607 319.0025531053543,102.02307962998748 C319.0025531053543,103.52309012040496 319.0025531053543,105.02310061082244 319.0025531053543,106.52311110123992 C318.33588260412216,106.52311110123992 317.6692195534706,106.52311110123992 317.00254905223846,106.52311110123992 C317.00254905223846,107.68975281342864 317.00254905223846,108.85639405995607 317.00254905223846,110.0230357721448 C315.0025449991226,110.0230357721448 313.0025409460068,110.0230357721448 311.00253689289093,110.0230357721448 C311.00253689289093,108.85639405995607 311.00253689289093,107.68975281342864 311.00253689289093,106.52311110123992 C310.3358663916588,106.52311110123992 309.66920334100723,106.52311110123992 309.0025328397751,106.52311110123992 C309.0025402903557,105.02310061082244 309.0025402903557,103.52309012040496 309.0025477409363,102.02307962998748 C309.0025477409363,101.02309262100607 309.0025477409363,101.02309262100607 310.002534866333,101.02306281868368 C310.3358738422394,101.02307271398604 310.66921281814575,101.02308272570372 311.0025517940521,101.02309262100607 C311.0025592446327,95.6897382736206 311.0025741457939,90.35638357698917 311.0025815963745,85.02302981168032 C291.5692471265793,85.02302981168032 272.13592010736465,85.02302981168032 252.70258563756943,85.02302981168032 C252.70258563756943,82.3563673645258 252.70258936285973,79.68970584869385 252.70258936285973,77.0230443328619 C219.3692505657673,77.0230443328619 186.03591921925545,77.0230443328619 152.702580422163,77.0230443328619 C152.7025841474533,79.68970584869385 152.7025878727436,82.3563673645258 152.7025915980339,85.02302981168032 C146.80259230732918,85.02302981168032 140.90259674191475,85.02302981168032 135.00259745121002,85.02302981168032 C135.00259000062943,90.35634446144104 135.00257509946823,95.68965864554048 135.00256764888763,101.0229732953012 C135.3358991742134,101.02300309762359 135.66923815011978,101.02303289994597 136.00256967544556,101.02306270226836 C137.00255680084229,101.0229732953012 137.00255680084229,101.0229732953012 137.00255680084229,102.02296042069793 C137.00255680084229,103.52297091111541 137.00255680084229,105.02298140153289 137.00255680084229,106.52299189195037 C136.33589375019073,106.52299189195037 135.66923069953918,106.52299189195037 135.00256764888763,106.52299189195037 C135.00256764888763,107.68967318534851 135.00256764888763,108.85635401308537 135.00256764888763,110.0230357721448 C133.0025635957718,110.0230357721448 131.00255954265594,110.0230357721448 129.0025554895401,110.0230357721448 C129.0025554895401,108.85635401308537 129.0025554895401,107.68967318534851 129.0025554895401,106.52299189195037 C128.33588498830795,106.52299189195037 127.6692219376564,106.52299189195037 127.00255143642426,106.52299189195037 C127.00255888700485,105.02298140153289 127.00255888700485,103.52297091111541 127.00256633758545,102.02296042069793 C127.00256633758545,101.0229732953012 127.00256633758545,101.0229732953012 128.00255346298218,101.02306270226836 C128.33589243888855,101.02303289994597 128.66923141479492,101.02300309762359 129.0025703907013,101.0229732953012 C129.0025778412819,95.68965864554048 129.00259274244308,90.35634446144104 129.00260019302368,85.02302981168032 C109.66925996541977,85.02302981168032 90.33592718839645,85.02302981168032 71.00259441137314,85.02302981168032 C71.00259441137314,82.3563487380743 71.00259441137314,79.68966673314571 71.00259441137314,77.02298472821712 C57.635924994945526,77.02298472821712 44.269255578517914,77.02298472821712 30.9025861620903,77.02298472821712 C30.9025861620903,79.68966673314571 30.9025861620903,82.3563487380743 30.9025861620903,85.02302981168032 C18.40256828069687,85.02305402606726 10.435885965824127,85.02307265251875 0.20252841711044312,85.02309407293797 C0.20251351594924927,90.68975235521793 0.20251351594924927,96.35641087032855 0.20249861478805542,102.02306915260851 C5.5358328223228455,102.023064263165 10.869167029857635,102.02305914089084 16.202501237392426,102.02305425144732 C16.20251613855362,101.68971527554095 16.20251613855362,101.3563764160499 16.202531039714813,101.02303744014353 C16.202501237392426,100.0230502628754 16.202501237392426,100.0230502628754 17.202488362789154,100.0230502628754 C18.70251375436783,100.02304529582108 20.20252424478531,100.02304032876853 21.702549636363983,100.02303536171421 C21.70253473520279,100.68970341188833 21.7025049328804,101.35637129377574 21.702490031719208,102.02303935028613 C22.869161546230316,102.02303935028613 24.035833060741425,102.02303935028613 25.202504575252533,102.02303935028613 C25.202504575252533,104.02304317057133 25.202504575252533,106.02304722368717 25.202504575252533,108.02305127680302 C24.03584796190262,108.02305127680302 22.869206249713898,108.02305127680302 21.702549636363983,108.02305127680302 C21.70253473520279,108.68971432745457 21.70253473520279,109.35637737810612 21.702519834041595,110.02304042875767 C20.202509343624115,110.02304042875767 18.702498853206635,110.02304042875767 17.202488362789154,110.02304042875767 C16.202501237392426,110.02304042875767 16.202501237392426,110.02304042875767 16.202531039714813,109.02305330336094 C16.202531039714813,108.68971898406744 16.202531039714813,108.35638559609652 16.202531039714813,108.02305127680302 C10.86918193101883,108.02305593341589 5.535847723484039,108.02306152135134 0.20249861478805542,108.02306617796421 C0.20249861478805542,112.02306962758303 0.20249861478805542,116.0230712145567 0.20249861478805542,120.02307559549809 C10.369173467159271,120.02307373285294 18.86916834115982,120.02307559549809 30.70250827074051,120.02307187020779 C30.70250827074051,146.68973545730114 30.70250827074051,173.3563990443945 30.70250827074051,200.02306263148785 C37.36918348073959,200.02306263148785 44.035843789577484,200.02306263148785 50.70251899957657,200.02306263148785 C50.70251899957657,196.02306197583675 50.70251899957657,192.02306132018566 50.70251899957657,188.02306066453457 C53.67604571580887,188.02306811511517 56.64958733320236,188.02306811511517 59.62311404943466,188.02307556569576 C59.62311404943466,184.35640643537045 59.623128950595856,180.68974475562572 59.623128950595856,177.0230756253004 C59.55646115541458,177.0230681747198 59.48979336023331,177.02305327355862 59.42312556505203,177.02304582297802 C58.423138439655304,177.0230756253004 58.423138439655304,177.0230756253004 58.423138439655304,176.02308849990368 C58.423138439655304,175.5897478312254 58.423138439655304,175.15639971196651 58.423138439655304,174.72305904328823 C58.82313030958176,174.72305904328823 59.2231370806694,174.72305904328823 59.623128950595856,174.72305904328823 C59.623128950595856,173.48972718417645 59.623128950595856,172.25640277564526 59.623128950595856,171.02307091653347 C60.62313097715378,171.02307091653347 61.6231330037117,171.02307091653347 62.62313503026962,171.02307091653347 C62.62313503026962,172.25640277564526 62.62313503026962,173.48972718417645 62.62313503026962,174.72305904328823 C63.02314180135727,174.72305904328823 63.42313367128372,174.72305904328823 63.82314044237137,174.72305904328823 C63.82314044237137,175.15639971196651 63.823125541210175,175.5897478312254 63.823125541210175,176.02308849990368 C63.823125541210175,177.0230756253004 63.823125541210175,177.0230756253004 62.823138415813446,177.02304582297802 C62.75647062063217,177.02305327355862 62.6897879242897,177.0230681747198 62.62312012910843,177.0230756253004 C62.62312012910843,180.68974475562572 62.623105227947235,184.35640643537045 62.623105227947235,188.02307556569576 C65.3162516951561,188.02306811511517 68.00938326120377,188.02306811511517 70.70252972841263,188.02306066453457 C70.70252972841263,165.3563977330923 70.70251482725143,142.68973480165005 70.70251482725143,120.02307187020779 C76.62456411123276,120.02307187020779 82.54661339521408,120.02307187020779 88.4686626791954,120.02307187020779 C88.468670129776,114.689737662673 88.468670129776,109.3564034551382 88.4686775803566,104.02306878194213 C88.13534605503082,104.0230590030551 87.80200707912445,104.02304875850677 87.46867555379868,104.02303897961974 C86.46868842840195,104.02306878194213 86.46868842840195,104.02306878194213 86.46868842840195,103.0230816565454 C86.46868842840195,101.52307116612792 86.46868842840195,100.02306055929512 86.46868842840195,98.52305006887764 C87.1353514790535,98.52305006887764 87.80201452970505,98.52305006887764 88.4686775803566,98.52305006887764 C88.4686775803566,97.35638844966888 88.4686775803566,96.1897271797061 88.4686775803566,95.02306544408202 C90.46868163347244,95.02306544408202 92.46868568658829,95.02306544408202 94.46868973970413,95.02306544408202 C94.46868973970413,96.1897271797061 94.46868973970413,97.35638844966888 94.46868973970413,98.52305006887764 C95.13536024093628,98.52305006887764 95.80202329158783,98.52305006887764 96.46869379281998,98.52305006887764 C96.46868634223938,100.02306055929512 96.46868634223938,101.52307116612792 96.46867889165878,103.0230816565454 C96.46867889165878,104.02306878194213 96.46867889165878,104.02306878194213 95.46869176626205,104.02303897961974 C95.13535279035568,104.02304875850677 94.80201381444931,104.0230590030551 94.46867483854294,104.02306878194213 C94.46866738796234,109.3564034551382 94.46866738796234,114.689737662673 94.46865993738174,120.02307187020779 C114.70249968767166,120.02307187020779 133.2912139892578,120.02307187020779 152.70249474048615,120.02307187020779 C152.70249474048615,122.68973338603973 152.70249474048615,125.35639676451683 152.70249474048615,128.02305828034878 C186.03583353757858,128.02305828034878 219.36916488409042,128.02305828034878 252.70250368118286,128.02305828034878 C252.70249995589256,125.35639676451683 252.70249250531197,122.68973338603973 252.70248878002167,120.02307187020779 C258.6114399433136,120.02307187020779 264.52039110660553,120.02307187020779 270.42934226989746,120.02307187020779 C270.42934972047806,114.689737662673 270.42934972047806,109.3564034551382 270.42935717105865,104.02306878194213 C270.0960256457329,104.0230590030551 269.7626866698265,104.02304875850677 269.42935514450073,104.02303897961974 C268.429368019104,104.02306878194213 268.429368019104,104.02306878194213 268.429368019104,103.0230816565454 C268.429368019104,101.52307116612792 268.429368019104,100.02306067571044 268.429368019104,98.52305018529296 C269.09603106975555,98.52305018529296 269.7626941204071,98.52305018529296 270.42935717105865,98.52305018529296 C270.42935717105865,97.35638844966888 270.42935717105865,96.1897271797061 270.42935717105865,95.02306544408202 C272.4293612241745,95.02306544408202 274.42936527729034,95.02306544408202 276.4293693304062,95.02306544408202 C276.4293693304062,96.1897271797061 276.4293693304062,97.35638844966888 276.4293693304062,98.52305018529296 C277.09603983163834,98.52305018529296 277.7627028822899,98.52305018529296 278.42937338352203,98.52305018529296 C278.42936593294144,100.02306067571044 278.42936593294144,101.52307116612792 278.42935848236084,103.0230816565454 C278.42935848236084,104.02306878194213 278.42935848236084,104.02306878194213 277.4293713569641,104.02303897961974 C277.09603238105774,104.02304875850677 276.76269340515137,104.0230590030551 276.429354429245,104.02306878194213 C276.4293469786644,109.3564034551382 276.4293469786644,114.689737662673 276.4293395280838,120.02307187020779 C295.3691624403,120.02307187020779 313.7024931907654,120.02307187020779 334.70249849557877,120.02307187020779 C334.70249849557877,142.68973480165005 334.70249849557877,165.3563977330923 334.70249849557877,188.02306066453457 C337.3787917494774,188.02306811511517 340.0550999045372,188.02308301627636 342.7313931584358,188.02309046685696 C342.7313931584358,184.35642133653164 342.731408059597,180.68975965678692 342.731408059597,177.0230905264616 C342.66474026441574,177.023083075881 342.59807246923447,177.0230681747198 342.5314046740532,177.0230607241392 C341.53141754865646,177.0230905264616 341.53141754865646,177.0230905264616 341.53141754865646,176.02310340106487 C341.53141754865646,175.5897627323866 341.53141754865646,175.1564146131277 341.53141754865646,174.72307394444942 C341.9314094185829,174.72307394444942 342.33141618967056,174.72307394444942 342.731408059597,174.72307394444942 C342.731408059597,173.48974208533764 342.731408059597,172.25641767680645 342.731408059597,171.02308581769466 C343.73141008615494,171.02308581769466 344.73141211271286,171.02308581769466 345.7314141392708,171.02308581769466 C345.7314141392708,172.25641767680645 345.7314141392708,173.48974208533764 345.7314141392708,174.72307394444942 C346.13142091035843,174.72307394444942 346.5314127802849,174.72307394444942 346.9314195513725,174.72307394444942 C346.9314195513725,175.1564146131277 346.93140465021133,175.5897627323866 346.93140465021133,176.02310340106487 C346.93140465021133,177.0230905264616 346.93140465021133,177.0230905264616 345.9314175248146,177.0230607241392 C345.86474972963333,177.0230681747198 345.79806703329086,177.023083075881 345.7313992381096,177.0230905264616 C345.7313992381096,180.68975965678692 345.7313843369484,184.35642133653164 345.7313843369484,188.02309046685696 C348.72176426649094,188.02308301627636 351.7121292948723,188.02306811511517 354.7025092244148,188.02306066453457 Z "/>
</svg>