<?xml version="1.0" standalone="no"?>
<!DOCTYPE svg PUBLIC "-//W3C//DTD SVG 20010904//EN" "http://www.w3.org/TR/2001/REC-SVG-20010904/DTD/svg10.dtd">
<svg width="415.0000810623169mm" height="123.00007790327072mm"  viewBox="0 0 415.0000810623169 123.00007790327072" xmlns="http://www.w3.org/2000/svg">
    <title>Bezier Curve : TableCoreSeite.004</title>
    <desc>This is an exported Bezier xml_path from Blender, using the ExportScript by maybites.ch and Craxic</desc>
<path style="fill:none;stroke:#000000;stroke-width:1px;stroke-linecap:butt;stroke-linejoin:miter;stroke-opacity:1" d="M401.2000960111618,106.02307283505797 C401.2000960111618,104.36670213192701 402.54368901252747,103.02306000329554 404.200057387352,103.02305185422301 C405.8564406633377,103.02304370515049 407.20007836818695,104.36668536812067 407.20007836818695,106.02307283505797 C407.20007836818695,107.6794519200921 405.8564406633377,109.02307192981243 404.200057387352,109.02306354790926 C402.54368901252747,109.02305516600609 401.2000960111618,107.67943515628576 401.2000960111618,106.02307283505797 Z "/>
<path style="fill:none;stroke:#000000;stroke-width:1px;stroke-linecap:butt;stroke-linejoin:miter;stroke-opacity:1" d="M350.20000755786896,188.02306066453457 C350.20000755786896,192.02306132018566 350.19999265670776,196.02306197583675 350.19999265670776,200.02306263148785 C356.86666786670685,200.02306263148785 363.53332817554474,200.02306263148785 370.2000033855438,200.02306263148785 C370.2000033855438,173.3563990443945 370.2000033855438,146.68973545730114 370.2000033855438,120.02307187020779 C385.20001888275146,120.02307187020779 400.2000343799591,120.02307187020779 415.20004987716675,120.02307187020779 C415.20006477832794,108.35641074180603 415.20006477832794,96.68975054472685 415.20007967948914,85.02308941632509 C400.2000641822815,85.02306985855103 385.20006358623505,85.02304936945438 370.2000480890274,85.02302981168032 C370.2000480890274,82.35638785362244 370.2000480890274,79.68974496424198 370.2000480890274,77.02310393750668 C356.86671257019043,77.02310393750668 343.53339195251465,77.02310393750668 330.2000564336777,77.02310393750668 C330.20007133483887,79.68974496424198 330.20008623600006,82.35638785362244 330.20010113716125,85.02302981168032 C324.5334279537201,85.02302981168032 318.86675477027893,85.02302981168032 313.20008158683777,85.02302981168032 C313.2000741362572,90.35638357698917 313.200059235096,95.6897382736206 313.2000517845154,101.02309250459075 C313.53338330984116,101.0230826092884 313.8667222857475,101.02307259757072 314.2000538110733,101.02306270226836 C315.2000558376312,101.02309250459075 315.2000558376312,101.02309250459075 315.2000558376312,102.02307962998748 C315.2000558376312,103.52309012040496 315.2000558376312,105.02310061082244 315.2000558376312,106.52311110123992 C314.5333853363991,106.52311110123992 313.8667222857475,106.52311110123992 313.2000517845154,106.52311110123992 C313.2000517845154,107.68975281342864 313.2000517845154,108.85639405995607 313.2000517845154,110.0230357721448 C311.20004773139954,110.0230357721448 309.2000436782837,110.0230357721448 307.20003962516785,110.0230357721448 C307.20003962516785,108.85639405995607 307.20003962516785,107.68975281342864 307.20003962516785,106.52311110123992 C306.5333691239357,106.52311110123992 305.86670607328415,106.52311110123992 305.200035572052,106.52311110123992 C305.2000430226326,105.02310061082244 305.2000430226326,103.52309012040496 305.2000504732132,102.02307962998748 C305.2000504732132,101.02309250459075 305.2000504732132,101.02309250459075 306.2000375986099,101.02306270226836 C306.5333765745163,101.02307259757072 306.86671555042267,101.0230826092884 307.20005452632904,101.02309250459075 C307.20006197690964,95.6897382736206 307.20007687807083,90.35638357698917 307.2000843286514,85.02302981168032 C288.2000830769539,85.02302981168032 269.20008927583694,85.02302981168032 250.2000880241394,85.02302981168032 C250.2000880241394,82.3563673645258 250.2000917494297,79.68970584869385 250.2000917494297,77.0230443328619 C216.86675295233727,77.0230443328619 183.53342160582542,77.0230443328619 150.200082808733,77.0230443328619 C150.20008653402328,79.68970584869385 150.20009025931358,82.3563673645258 150.20009398460388,85.02302981168032 C144.53342825174332,85.02302981168032 138.86676251888275,85.02302981168032 133.2000967860222,85.02302981168032 C133.2000893354416,90.35634446144104 133.2000744342804,95.68965864554048 133.2000669836998,101.0229732953012 C133.53339850902557,101.02300309762359 133.86673748493195,101.02303289994597 134.20006901025772,101.02306270226836 C135.20005613565445,101.0229732953012 135.20005613565445,101.0229732953012 135.20005613565445,102.02296042069793 C135.20005613565445,103.52297091111541 135.20005613565445,105.02298140153289 135.20005613565445,106.52299189195037 C134.5333930850029,106.52299189195037 133.86673003435135,106.52299189195037 133.2000669836998,106.52299189195037 C133.2000669836998,107.68967318534851 133.2000669836998,108.85635401308537 133.2000669836998,110.0230357721448 C131.20006293058395,110.0230357721448 129.2000588774681,110.0230357721448 127.20005482435226,110.0230357721448 C127.20005482435226,108.85635401308537 127.20005482435226,107.68967318534851 127.20005482435226,106.52299189195037 C126.53338432312012,106.52299189195037 125.86672127246857,106.52299189195037 125.20005077123642,106.52299189195037 C125.20005822181702,105.02298140153289 125.20005822181702,103.52297091111541 125.20006567239761,102.02296042069793 C125.20006567239761,101.0229732953012 125.20006567239761,101.0229732953012 126.20005279779434,101.02306270226836 C126.53339177370071,101.02303289994597 126.86673074960709,101.02300309762359 127.20006972551346,101.0229732953012 C127.20007717609406,95.68965864554048 127.20009207725525,90.35634446144104 127.20009952783585,85.02302981168032 C108.2000982761383,85.02302981168032 89.20009702444077,85.02302981168032 70.20009577274323,85.02302981168032 C70.20009577274323,82.3563487380743 70.20009577274323,79.68966673314571 70.20009577274323,77.02298472821712 C56.86676025390625,77.02298472821712 43.533424735069275,77.02298472821712 30.2000892162323,77.02298472821712 C30.2000892162323,79.68966673314571 30.2000892162323,82.3563487380743 30.2000892162323,85.02302981168032 C20.200068950653076,85.02304936945438 10.200048685073853,85.02306985855103 0.2000284194946289,85.02308941632509 C0.20001351833343506,90.68974769860506 0.20001351833343506,96.35640644654632 0.1999986171722412,102.02306472882628 C5.533332824707031,102.02305983938277 10.866667032241821,102.02305471710861 16.20000123977661,102.02304982766509 C16.200016140937805,101.68971085175872 16.200016140937805,101.35637187585235 16.200031042099,101.02303289994597 C16.20000123977661,100.02304573980193 16.20000123977661,100.02304573980193 17.19998836517334,100.02304573980193 C18.700013756752014,100.0230407727476 20.200024247169495,100.02303580569462 21.70004963874817,100.02303083864074 C21.700034737586975,100.68969887169078 21.700004935264587,101.35636686999351 21.699990034103394,102.0230349265039 C22.866661548614502,102.0230349265039 24.03333306312561,102.0230349265039 25.20000457763672,102.0230349265039 C25.20000457763672,104.02303897961974 25.20000457763672,106.0230425670743 25.20000457763672,108.02304662019014 C24.033347964286804,108.02304662019014 22.866706252098083,108.02304662019014 21.70004963874817,108.02304662019014 C21.700034737586975,108.6897096708417 21.700034737586975,109.35637272149324 21.70001983642578,110.0230357721448 C20.2000093460083,110.0230357721448 18.69999885559082,110.0230357721448 17.19998836517334,110.0230357721448 C16.20000123977661,110.0230357721448 16.20000123977661,110.0230357721448 16.200031042099,109.02304864674807 C16.200031042099,108.68971432745457 16.200031042099,108.35638093948364 16.200031042099,108.02304662019014 C10.866681933403015,108.02305127680302 5.533347725868225,108.02305686473846 0.1999986171722412,108.02306152135134 C0.1999986171722412,112.02306497097015 0.1999986171722412,116.0230674892664 0.1999986171722412,120.02307187020779 C10.200003981590271,120.02307187020779 20.2000093460083,120.02307187020779 30.20001471042633,120.02307187020779 C30.20001471042633,146.68973545730114 30.20001471042633,173.3563990443945 30.20001471042633,200.02306263148785 C36.866689920425415,200.02306263148785 43.533350229263306,200.02306263148785 50.20002543926239,200.02306263148785 C50.20002543926239,196.02306197583675 50.20002543926239,192.02306132018566 50.20002543926239,188.02306066453457 C53.03334712982178,188.02306811511517 55.866668820381165,188.02306811511517 58.69999051094055,188.02307556569576 C58.69999051094055,184.35640643537045 58.700005412101746,180.68974475562572 58.700005412101746,177.0230756253004 C58.63333761692047,177.0230681747198 58.5666698217392,177.02305327355862 58.50000202655792,177.02304582297802 C57.500014901161194,177.0230756253004 57.500014901161194,177.0230756253004 57.500014901161194,176.02308849990368 C57.500014901161194,175.5897478312254 57.500014901161194,175.15639971196651 57.500014901161194,174.72305904328823 C57.90000677108765,174.72305904328823 58.30001354217529,174.72305904328823 58.700005412101746,174.72305904328823 C58.700005412101746,173.48972718417645 58.700005412101746,172.25640277564526 58.700005412101746,171.02307091653347 C59.70000743865967,171.02307091653347 60.70000946521759,171.02307091653347 61.70001149177551,171.02307091653347 C61.70001149177551,172.25640277564526 61.70001149177551,173.48972718417645 61.70001149177551,174.72305904328823 C62.10001826286316,174.72305904328823 62.50001013278961,174.72305904328823 62.90001690387726,174.72305904328823 C62.90001690387726,175.15639971196651 62.900002002716064,175.5897478312254 62.900002002716064,176.02308849990368 C62.900002002716064,177.0230756253004 62.900002002716064,177.0230756253004 61.900014877319336,177.02304582297802 C61.83334708213806,177.02305327355862 61.76666438579559,177.0230681747198 61.69999659061432,177.0230756253004 C61.69999659061432,180.68974475562572 61.699981689453125,184.35640643537045 61.699981689453125,188.02307556569576 C64.5333331823349,188.02306811511517 67.36668467521667,188.02306811511517 70.20003616809845,188.02306066453457 C70.20003616809845,165.3563977330923 70.20002126693726,142.68973480165005 70.20002126693726,120.02307187020779 C75.86668699979782,120.02307187020779 81.53334528207779,120.02307187020779 87.20001101493835,120.02307187020779 C87.20001846551895,114.689737662673 87.20001846551895,109.3564034551382 87.20002591609955,104.02306878194213 C86.86669439077377,104.0230590030551 86.5333554148674,104.02304875850677 86.20002388954163,104.02303897961974 C85.2000367641449,104.02306878194213 85.2000367641449,104.02306878194213 85.2000367641449,103.0230816565454 C85.2000367641449,101.52307116612792 85.2000367641449,100.02306067571044 85.2000367641449,98.52305018529296 C85.86669981479645,98.52305018529296 86.533362865448,98.52305018529296 87.20002591609955,98.52305018529296 C87.20002591609955,97.35638844966888 87.20002591609955,96.1897271797061 87.20002591609955,95.02306544408202 C89.2000299692154,95.02306544408202 91.20003402233124,95.02306544408202 93.20003807544708,95.02306544408202 C93.20003807544708,96.1897271797061 93.20003807544708,97.35638844966888 93.20003807544708,98.52305018529296 C93.86670857667923,98.52305018529296 94.53337162733078,98.52305018529296 95.20004212856293,98.52305018529296 C95.20003467798233,100.02306067571044 95.20003467798233,101.52307116612792 95.20002722740173,103.0230816565454 C95.20002722740173,104.02306878194213 95.20002722740173,104.02306878194213 94.200040102005,104.02303897961974 C93.86670112609863,104.02304875850677 93.53336215019226,104.0230590030551 93.20002317428589,104.02306878194213 C93.20001572370529,109.3564034551382 93.20001572370529,114.689737662673 93.2000082731247,120.02307187020779 C112.20000207424164,120.02307187020779 131.19999587535858,120.02307187020779 150.19999712705612,120.02307187020779 C150.19999712705612,122.68973338603973 150.19999712705612,125.35639676451683 150.19999712705612,128.02305828034878 C183.53333592414856,128.02305828034878 216.8666672706604,128.02305828034878 250.20000606775284,128.02305828034878 C250.20000234246254,125.35639676451683 250.19999489188194,122.68973338603973 250.19999116659164,120.02307187020779 C255.8666606247425,120.02307187020779 261.5333263576031,120.02307187020779 267.19999581575394,120.02307187020779 C267.20000326633453,114.689737662673 267.20000326633453,109.3564034551382 267.20001071691513,104.02306878194213 C266.86667919158936,104.0230590030551 266.533340215683,104.02304875850677 266.2000086903572,104.02303897961974 C265.2000215649605,104.02306878194213 265.2000215649605,104.02306878194213 265.2000215649605,103.0230816565454 C265.2000215649605,101.52307116612792 265.2000215649605,100.02306067571044 265.2000215649605,98.52305018529296 C265.86668461561203,98.52305018529296 266.5333476662636,98.52305018529296 267.20001071691513,98.52305018529296 C267.20001071691513,97.35638844966888 267.20001071691513,96.1897271797061 267.20001071691513,95.02306544408202 C269.200014770031,95.02306544408202 271.2000188231468,95.02306544408202 273.20002287626266,95.02306544408202 C273.20002287626266,96.1897271797061 273.20002287626266,97.35638844966888 273.20002287626266,98.52305018529296 C273.8666933774948,98.52305018529296 274.53335642814636,98.52305018529296 275.2000269293785,98.52305018529296 C275.2000194787979,100.02306067571044 275.2000194787979,101.52307116612792 275.2000120282173,103.0230816565454 C275.2000120282173,104.02306878194213 275.2000120282173,104.02306878194213 274.2000249028206,104.02303897961974 C273.8666859269142,104.02304875850677 273.53334695100784,104.0230590030551 273.20000797510147,104.02306878194213 C273.2000005245209,109.3564034551382 273.2000005245209,114.689737662673 273.1999930739403,120.02307187020779 C292.1999943256378,120.02307187020779 311.19999557733536,120.02307187020779 330.1999968290329,120.02307187020779 C330.1999968290329,142.68973480165005 330.1999968290329,165.3563977330923 330.1999968290329,188.02306066453457 C333.0333334207535,188.02306811511517 335.86665511131287,188.02308301627636 338.69999170303345,188.02309046685696 C338.69999170303345,184.35642133653164 338.70000660419464,180.68975965678692 338.70000660419464,177.0230905264616 C338.63333880901337,177.023083075881 338.5666710138321,177.0230681747198 338.5000032186508,177.0230607241392 C337.5000160932541,177.0230905264616 337.5000160932541,177.0230905264616 337.5000160932541,176.02310340106487 C337.5000160932541,175.5897627323866 337.5000160932541,175.1564146131277 337.5000160932541,174.72307394444942 C337.90000796318054,174.72307394444942 338.3000147342682,174.72307394444942 338.70000660419464,174.72307394444942 C338.70000660419464,173.48974208533764 338.70000660419464,172.25641767680645 338.70000660419464,171.02308581769466 C339.70000863075256,171.02308581769466 340.7000106573105,171.02308581769466 341.7000126838684,171.02308581769466 C341.7000126838684,172.25641767680645 341.7000126838684,173.48974208533764 341.7000126838684,174.72307394444942 C342.10001945495605,174.72307394444942 342.5000113248825,174.72307394444942 342.90001809597015,174.72307394444942 C342.90001809597015,175.1564146131277 342.90000319480896,175.5897627323866 342.90000319480896,176.02310340106487 C342.90000319480896,177.0230905264616 342.90000319480896,177.0230905264616 341.90001606941223,177.0230607241392 C341.83334827423096,177.0230681747198 341.7666655778885,177.023083075881 341.6999977827072,177.0230905264616 C341.6999977827072,180.68975965678692 341.699982881546,184.35642133653164 341.699982881546,188.02309046685696 C344.5333194732666,188.02308301627636 347.3666709661484,188.02306811511517 350.20000755786896,188.02306066453457 Z "/>
</svg>