<?xml version="1.0" standalone="no"?>
<!DOCTYPE svg PUBLIC "-//W3C//DTD SVG 20010904//EN" "http://www.w3.org/TR/2001/REC-SVG-20010904/DTD/svg10.dtd">
<svg width="909.9999964237213mm" height="600.0000238418579mm"  viewBox="0 0 909.9999964237213 600.0000238418579" xmlns="http://www.w3.org/2000/svg">
    <title>Bezier Curve : TableTopCore.Cut</title>
    <desc>This is an exported Bezier xml_path from Blender, using the ExportScript by maybites.ch and Craxic</desc>
<path style="fill:none;stroke:#000000;stroke-width:1px;stroke-linecap:butt;stroke-linejoin:miter;stroke-opacity:1" d="M0.45499998331069946,600.3000238537788 C0.45499998331069946,433.63332241773605 0.45499998331069946,133.6333402991295 0.45499998331069946,0.30000001192092896 C337.12166595458984,0.30000001192092896 583.7882985472679,0.30000001192092896 910.454996407032,0.30000001192092896 C910.454996407032,133.6333402991295 910.454996407032,433.63332241773605 910.454996407032,600.3000238537788 C583.7882985472679,600.3000238537788 337.12166595458984,600.3000238537788 0.45499998331069946,600.3000238537788 Z "/>
<path style="fill:none;stroke:#000000;stroke-width:1px;stroke-linecap:butt;stroke-linejoin:miter;stroke-opacity:1" d="M303.7864049077034,300.30001193978524 C303.7864049077034,217.01880782842636 372.17377918958664,150.29814332723618 455.454983606817,150.29814332723618 C538.7361873984337,150.29814332723618 607.1235616803169,217.01880782842636 607.1235616803169,300.30001193978524 C607.1235616803169,383.5812160372734 538.7361873984337,450.3018805384636 455.454983606817,450.3018805384636 C372.17377918958664,450.3018805384636 303.7864049077034,383.5812160372734 303.7864049077034,300.30001193978524 Z "/>
<path style="fill:none;stroke:#000000;stroke-width:1px;stroke-linecap:butt;stroke-linejoin:miter;stroke-opacity:1" d="M133.66401988267899,50.30002683401108 C133.66401988267899,48.49291831254959 135.14790731668472,47.04512149095535 136.9550307393074,47.04512149095535 C138.76215416193008,47.04512149095535 140.24604159593582,48.49291831254959 140.24604159593582,50.30002683401108 C140.24604159593582,52.10712045431137 138.7621243596077,53.55488747358322 136.9550307393074,53.55488747358322 C135.1479371190071,53.55488747358322 133.66401988267899,52.10712045431137 133.66401988267899,50.30002683401108 Z "/>
<path style="fill:none;stroke:#000000;stroke-width:1px;stroke-linecap:butt;stroke-linejoin:miter;stroke-opacity:1" d="M133.66401988267899,530.3000012040138 C133.66401988267899,528.4928926825523 135.14790731668472,527.0450958609581 136.9550307393074,527.0450958609581 C138.76215416193008,527.0450958609581 140.24604159593582,528.4928926825523 140.24604159593582,530.3000012040138 C140.24604159593582,532.1070948243141 138.7621243596077,533.554861843586 136.9550307393074,533.554861843586 C135.1479371190071,533.554861843586 133.66401988267899,532.1070948243141 133.66401988267899,530.3000012040138 Z "/>
<path style="fill:none;stroke:#000000;stroke-width:1px;stroke-linecap:butt;stroke-linejoin:miter;stroke-opacity:1" d="M770.664044201374,50.30002683401108 C770.664044201374,48.49291831254959 772.1479316353798,47.04512149095535 773.9550550580025,47.04512149095535 C775.7621784806252,47.04512149095535 777.2460659146309,48.49291831254959 777.2460659146309,50.30002683401108 C777.2460659146309,52.10712045431137 775.7621486783028,53.55488747358322 773.9550550580025,53.55488747358322 C772.1479614377022,53.55488747358322 770.664044201374,52.10712045431137 770.664044201374,50.30002683401108 Z "/>
<path style="fill:none;stroke:#000000;stroke-width:1px;stroke-linecap:butt;stroke-linejoin:miter;stroke-opacity:1" d="M770.664044201374,530.3000012040138 C770.664044201374,528.4928926825523 772.1479316353798,527.0450958609581 773.9550550580025,527.0450958609581 C775.7621784806252,527.0450958609581 777.2460659146309,528.4928926825523 777.2460659146309,530.3000012040138 C777.2460659146309,532.1070948243141 775.7621486783028,533.554861843586 773.9550550580025,533.554861843586 C772.1479614377022,533.554861843586 770.664044201374,532.1070948243141 770.664044201374,530.3000012040138 Z "/>
<path style="fill:none;stroke:#000000;stroke-width:1px;stroke-linecap:butt;stroke-linejoin:miter;stroke-opacity:1" d="M49.79790049791336,50.30002683401108 C49.79790049791336,49.63410884141922 50.34468370676041,49.1005876660347 51.01058679819107,49.1005876660347 C51.676489889621735,49.1005876660347 52.22327309846878,49.63410884141922 52.22327309846878,50.30002683401108 C52.22327309846878,50.96591502428055 51.676489889621735,51.499421298503876 51.01058679819107,51.499421298503876 C50.34468370676041,51.499421298503876 49.79790049791336,50.96591502428055 49.79790049791336,50.30002683401108 Z "/>
<path style="fill:none;stroke:#000000;stroke-width:1px;stroke-linecap:butt;stroke-linejoin:miter;stroke-opacity:1" d="M49.79790049791336,550.3000119328499 C49.79790049791336,549.6341088414192 50.34468370676041,549.1006025671959 51.01058679819107,549.1006025671959 C51.676489889621735,549.1006025671959 52.22327309846878,549.6341088414192 52.22327309846878,550.3000119328499 C52.22327309846878,550.9659150242805 51.676489889621735,551.4994063973427 51.01058679819107,551.4994063973427 C50.34468370676041,551.4994063973427 49.79790049791336,550.9659150242805 49.79790049791336,550.3000119328499 Z "/>
<path style="fill:none;stroke:#000000;stroke-width:1px;stroke-linecap:butt;stroke-linejoin:miter;stroke-opacity:1" d="M858.6868126988411,50.30002683401108 C858.6868126988411,49.63410884141922 859.2335959076881,49.1005876660347 859.8994989991188,49.1005876660347 C860.5654020905495,49.1005876660347 861.1121852993965,49.63410884141922 861.1121852993965,50.30002683401108 C861.1121852993965,50.96591502428055 860.5654020905495,51.499421298503876 859.8994989991188,51.499421298503876 C859.2335959076881,51.499421298503876 858.6868126988411,50.96591502428055 858.6868126988411,50.30002683401108 Z "/>
<path style="fill:none;stroke:#000000;stroke-width:1px;stroke-linecap:butt;stroke-linejoin:miter;stroke-opacity:1" d="M858.6868126988411,550.3000119328499 C858.6868126988411,549.6341088414192 859.2335959076881,549.1006025671959 859.8994989991188,549.1006025671959 C860.5654020905495,549.1006025671959 861.1121852993965,549.6341088414192 861.1121852993965,550.3000119328499 C861.1121852993965,550.9659150242805 860.5654020905495,551.4994063973427 859.8994989991188,551.4994063973427 C859.2335959076881,551.4994063973427 858.6868126988411,550.9659150242805 858.6868126988411,550.3000119328499 Z "/>
<path style="fill:none;stroke:#000000;stroke-width:1px;stroke-linecap:butt;stroke-linejoin:miter;stroke-opacity:1" d="M253.23277014493942,350.30000522732735 C253.23277014493942,316.9666738808155 253.23277014493942,283.63334998488426 253.23277014493942,250.30001863837242 C250.33425587415695,250.30001863837242 247.4357267022133,250.30001863837242 244.53721243143082,250.30001863837242 C244.53721243143082,283.63334998488426 244.53721243143082,316.9666738808155 244.53721243143082,350.30000522732735 C247.4357267022133,350.30000522732735 250.33425587415695,350.30000522732735 253.23277014493942,350.30000522732735 Z "/>
<path style="fill:none;stroke:#000000;stroke-width:1px;stroke-linecap:butt;stroke-linejoin:miter;stroke-opacity:1" d="M245.89736062288284,370.3000047802925 C245.89736062288284,368.492896258831 247.38126295804977,367.0450994372368 249.18837147951126,367.0450994372368 C250.99548000097275,367.0450994372368 252.47938233613968,368.492896258831 252.47938233613968,370.3000047802925 C252.47938233613968,372.1071058511734 250.99546509981155,373.55486541986465 249.18837147951126,373.55486541986465 C247.38127785921097,373.55486541986465 245.89736062288284,372.1071058511734 245.89736062288284,370.3000047802925 Z "/>
<path style="fill:none;stroke:#000000;stroke-width:1px;stroke-linecap:butt;stroke-linejoin:miter;stroke-opacity:1" d="M245.89736062288284,190.30001252889633 C245.89736062288284,188.49290400743484 247.38126295804977,187.0451071858406 249.18837147951126,187.0451071858406 C250.99548000097275,187.0451071858406 252.47938233613968,188.49290400743484 252.47938233613968,190.30001252889633 C252.47938233613968,192.10711359977722 250.99546509981155,193.55487316846848 249.18837147951126,193.55487316846848 C247.38127785921097,193.55487316846848 245.89736062288284,192.10711359977722 245.89736062288284,190.30001252889633 Z "/>
<path style="fill:none;stroke:#000000;stroke-width:1px;stroke-linecap:butt;stroke-linejoin:miter;stroke-opacity:1" d="M253.23277014493942,470.29999881982803 C253.23277014493942,456.96667820215225 253.23277014493942,443.6333426833153 253.23277014493942,430.3000220656395 C250.33425587415695,430.3000220656395 247.4357267022133,430.3000220656395 244.53721243143082,430.3000220656395 C244.53721243143082,443.6333426833153 244.53721243143082,456.96667820215225 244.53721243143082,470.29999881982803 C247.4357267022133,470.29999881982803 250.33425587415695,470.29999881982803 253.23277014493942,470.29999881982803 Z "/>
<path style="fill:none;stroke:#000000;stroke-width:1px;stroke-linecap:butt;stroke-linejoin:miter;stroke-opacity:1" d="M253.23277014493942,170.30001670122147 C253.23277014493942,156.96669608354568 253.23277014493942,143.6333605647087 253.23277014493942,130.30003994703293 C250.33425587415695,130.30003994703293 247.4357267022133,130.30003994703293 244.53721243143082,130.30003994703293 C244.53721243143082,143.6333605647087 244.53721243143082,156.96669608354568 244.53721243143082,170.30001670122147 C247.4357267022133,170.30001670122147 250.33425587415695,170.30001670122147 253.23277014493942,170.30001670122147 Z "/>
<path style="fill:none;stroke:#000000;stroke-width:1px;stroke-linecap:butt;stroke-linejoin:miter;stroke-opacity:1" d="M404.899411380291,100.30002385377884 C438.6031185388565,100.30002385377884 472.30681824684143,100.30002385377884 506.01052540540695,100.30002385377884 C506.01052168011665,97.43335336446762 506.01051422953606,94.5666828751564 506.01051050424576,91.70001238584518 C472.30681452155113,91.70001238584518 438.6031222641468,91.70001238584518 404.8994262814522,91.70001238584518 C404.8994225561619,94.5666828751564 404.8994151055813,97.43335336446762 404.899411380291,100.30002385377884 Z "/>
<path style="fill:none;stroke:#000000;stroke-width:1px;stroke-linecap:butt;stroke-linejoin:miter;stroke-opacity:1" d="M384.67719453573227,93.04522961378098 C386.48430305719376,93.04522961378098 387.96825754642487,94.49295192956924 387.96826499700546,96.30006045103073 C387.96827244758606,98.10716897249222 386.48431050777435,99.55492109060287 384.67719453573227,99.55492109060287 C382.8700934648514,99.55492109060287 381.38616132736206,98.10716897249222 381.38616877794266,96.30006045103073 C381.38617622852325,94.49296683073044 382.870100915432,93.04522961378098 384.67719453573227,93.04522961378098 Z "/>
<path style="fill:none;stroke:#000000;stroke-width:1px;stroke-linecap:butt;stroke-linejoin:miter;stroke-opacity:1" d="M566.6771833896637,93.04521471261978 C568.4842919111252,93.04519981145859 569.9682538509369,94.49295192956924 569.9682538509369,96.30006045103073 C569.9682538509369,98.10716897249222 568.4842919111252,99.55492109060287 566.6771833896637,99.55490618944168 C564.8700897693634,99.55489128828049 563.3861725330353,98.10715407133102 563.3861725330353,96.30006045103073 C563.3861725330353,94.49296683073044 564.8700897693634,93.04522961378098 566.6771833896637,93.04521471261978 Z "/>
<path style="fill:none;stroke:#000000;stroke-width:1px;stroke-linecap:butt;stroke-linejoin:miter;stroke-opacity:1" d="M283.5660805106163,100.30005365610123 C297.0475633740425,100.30005365610123 310.5290313363075,100.30003875494003 324.01051419973373,100.30003875494003 C324.01051419973373,97.43336826562881 324.01051419973373,94.56671267747879 324.01051419973373,91.70004218816757 C310.5290313363075,91.70004218816757 297.0475633740425,91.70002728700638 283.5660805106163,91.70002728700638 C283.5660805106163,94.5666977763176 283.5660805106163,97.43338316679001 283.5660805106163,100.30005365610123 Z "/>
<path style="fill:none;stroke:#000000;stroke-width:1px;stroke-linecap:butt;stroke-linejoin:miter;stroke-opacity:1" d="M586.8993927836418,100.30000895261765 C600.380875647068,100.30000895261765 613.862343609333,100.30000895261765 627.3438264727592,100.30000895261765 C627.3438264727592,97.43333846330643 627.343811571598,94.56666797399521 627.343811571598,91.69999748468399 C613.862343609333,91.69999748468399 600.380875647068,91.69999748468399 586.899407684803,91.69999748468399 C586.899407684803,94.56666797399521 586.8993927836418,97.43333846330643 586.8993927836418,100.30000895261765 Z "/>
<path style="fill:none;stroke:#000000;stroke-width:1px;stroke-linecap:butt;stroke-linejoin:miter;stroke-opacity:1" d="M657.6771964430809,250.29998511075974 C657.6771964430809,283.6333164572716 657.6771964430809,316.9666478037834 657.6771964430809,350.29997915029526 C660.5757256150246,350.29997915029526 663.474239885807,350.29997915029526 666.3727690577507,350.29997915029526 C666.3727690577507,316.9666515290737 666.3727839589119,283.63332763314247 666.3727839589119,250.30000001192093 C663.4742547869682,250.29999628663063 660.5757256150246,250.29998883605003 657.6771964430809,250.29998511075974 Z "/>
<path style="fill:none;stroke:#000000;stroke-width:1px;stroke-linecap:butt;stroke-linejoin:miter;stroke-opacity:1" d="M665.0125910639763,230.29998928308487 C665.0125910639763,232.10709780454636 663.5286887288094,233.5548946261406 661.7215802073479,233.5548946261406 C659.9144716858864,233.5548946261406 658.4305544495583,232.10709780454636 658.4305693507195,230.29998928308487 C658.4305842518806,228.49288076162338 659.9145014882088,227.04512119293213 661.7216100096703,227.04512864351273 C663.5287036299706,227.04513609409332 665.0125910639763,228.49289566278458 665.0125910639763,230.29998928308487 Z "/>
<path style="fill:none;stroke:#000000;stroke-width:1px;stroke-linecap:butt;stroke-linejoin:miter;stroke-opacity:1" d="M665.0126059651375,410.29996663331985 C665.0126208662987,412.10707515478134 663.5287036299706,413.5548719763756 661.7215951085091,413.5548719763756 C659.9144865870476,413.5548719763756 658.4305693507195,412.10707515478134 658.4305842518806,410.29996663331985 C658.4305991530418,408.49287301301956 659.9145014882088,407.0451208949089 661.7215951085091,407.0451208949089 C663.5286887288094,407.0451208949089 665.0125910639763,408.49287301301956 665.0126059651375,410.29996663331985 Z "/>
<path style="fill:none;stroke:#000000;stroke-width:1px;stroke-linecap:butt;stroke-linejoin:miter;stroke-opacity:1" d="M657.6771368384361,130.29998034238815 C657.6771517395973,143.63331586122513 657.6771517395973,156.9666364789009 657.6771666407585,170.29997199773788 C660.5756958127022,170.29997199773788 663.4742100834846,170.29997199773788 666.3727392554283,170.29997199773788 C666.3727392554283,156.9666364789009 666.3727392554283,143.63331586122513 666.3727392554283,130.29998034238815 C663.4742100834846,130.29998034238815 660.5756660103798,130.29998034238815 657.6771368384361,130.29998034238815 Z "/>
<path style="fill:none;stroke:#000000;stroke-width:1px;stroke-linecap:butt;stroke-linejoin:miter;stroke-opacity:1" d="M657.6772262454033,430.2999624609947 C657.6772262454033,443.6332979798317 657.6772262454033,456.9666185975075 657.6772262454033,470.29995411634445 C660.575755417347,470.29995411634445 663.4742696881294,470.29993921518326 666.3727988600731,470.29993921518326 C666.3727988600731,456.9666185975075 666.3727988600731,443.6332979798317 666.3727988600731,430.2999773621559 C663.4742696881294,430.2999773621559 660.575755417347,430.2999624609947 657.6772262454033,430.2999624609947 Z "/>
<path style="fill:none;stroke:#000000;stroke-width:1px;stroke-linecap:butt;stroke-linejoin:miter;stroke-opacity:1" d="M506.0105850100517,500.29998511075974 C472.3068778514862,500.29998511075974 438.6031781435013,500.30000001192093 404.89947098493576,500.30000001192093 C404.89947098493576,503.16667050123215 404.89947098493576,506.03335589170456 404.89947098493576,508.9000263810158 C438.6031706929207,508.90004128217697 472.3068704009056,508.90004128217697 506.01057010889053,508.90005618333817 C506.01057383418083,506.03337079286575 506.01058128476143,503.16667050123215 506.0105850100517,500.29998511075974 Z "/>
<path style="fill:none;stroke:#000000;stroke-width:1px;stroke-linecap:butt;stroke-linejoin:miter;stroke-opacity:1" d="M526.2328018546104,507.5547942519188 C524.425693333149,507.5547942519188 522.9417388439178,506.1070719361305 522.9417313933372,504.29996341466904 C522.9417239427567,502.49285489320755 524.4256858825684,501.0451027750969 526.2328018546104,501.0451027750969 C528.0399029254913,501.0451027750969 529.5238350629807,502.49285489320755 529.5238276124,504.29996341466904 C529.5238201618195,506.10705703496933 528.0398954749107,507.5547942519188 526.2328018546104,507.5547942519188 Z "/>
<path style="fill:none;stroke:#000000;stroke-width:1px;stroke-linecap:butt;stroke-linejoin:miter;stroke-opacity:1" d="M344.232813000679,507.55480915308 C342.42570447921753,507.5548240542412 340.9417425394058,506.1070719361305 340.9417425394058,504.29996341466904 C340.9417425394058,502.49285489320755 342.42570447921753,501.0451027750969 344.232813000679,501.0451176762581 C346.0399066209793,501.0451325774193 347.52382385730743,502.49286979436874 347.52382385730743,504.29996341466904 C347.52382385730743,506.10705703496933 346.0399066209793,507.5547942519188 344.232813000679,507.55480915308 Z "/>
<path style="fill:none;stroke:#000000;stroke-width:1px;stroke-linecap:butt;stroke-linejoin:miter;stroke-opacity:1" d="M627.3439307808876,500.29992550611496 C613.8624479174614,500.29994040727615 600.3809650540352,500.29994040727615 586.899482190609,500.29995530843735 C586.899482190609,503.16662579774857 586.899482190609,506.033311188221 586.899482190609,508.8999816775322 C600.3809650540352,508.8999816775322 613.8624479174614,508.8999816775322 627.3439307808876,508.8999816775322 C627.3439307808876,506.0332962870598 627.3439307808876,503.1666108965874 627.3439307808876,500.29992550611496 Z "/>
<path style="fill:none;stroke:#000000;stroke-width:1px;stroke-linecap:butt;stroke-linejoin:miter;stroke-opacity:1" d="M324.0106036067009,500.3000447154045 C310.5291207432747,500.3000447154045 297.0476527810097,500.3000447154045 283.56616991758347,500.3000447154045 C283.56618481874466,503.16671520471573 283.56618481874466,506.03340059518814 283.56619971990585,508.90007108449936 C297.0476527810097,508.90007108449936 310.5291207432747,508.90007108449936 324.0105738043785,508.90007108449936 C324.0105887055397,506.03340059518814 324.0105887055397,503.16671520471573 324.0106036067009,500.3000447154045 Z "/>
<path style="fill:none;stroke:#000000;stroke-width:1px;stroke-linecap:butt;stroke-linejoin:miter;stroke-opacity:1" d="M677.9010673165321,472.0495739579201 C676.9306142926216,472.0495739579201 676.1337150931358,471.27212077379227 676.1337150931358,470.30166774988174 C676.1337150931358,469.3312147259712 676.9306142926216,468.5537615418434 677.9010673165321,468.5537615418434 C678.8715054392815,468.5537615418434 679.6684046387672,469.33119982481 679.6684195399284,470.30163794755936 C679.6684344410896,471.2720909714699 678.8715203404427,472.0495739579201 677.9010673165321,472.0495739579201 Z "/>
<path style="fill:none;stroke:#000000;stroke-width:1px;stroke-linecap:butt;stroke-linejoin:miter;stroke-opacity:1" d="M718.3455010056496,472.0495739579201 C717.375047981739,472.0495739579201 716.5781636834145,471.2721058726311 716.5781636834145,470.30166774988174 C716.5781636834145,469.3312296271324 717.375047981739,468.5537764430046 718.3455010056496,468.5537615418434 C719.3159540295601,468.5537466406822 720.1128681302071,469.33119982481 720.1128681302071,470.30163794755936 C720.1128681302071,471.2720909714699 719.3159540295601,472.0495739579201 718.3455010056496,472.0495739579201 Z "/>
<path style="fill:none;stroke:#000000;stroke-width:1px;stroke-linecap:butt;stroke-linejoin:miter;stroke-opacity:1" d="M677.9010673165321,512.0495656132698 C676.9306142926216,512.0495656132698 676.1337150931358,511.272112429142 676.1337150931358,510.3016594052315 C676.1337150931358,509.33120638132095 676.9306142926216,508.55375319719315 677.9010673165321,508.55375319719315 C678.8715054392815,508.55375319719315 679.6684046387672,509.33119148015976 679.6684195399284,510.3016296029091 C679.6684344410896,511.2720826268196 678.8715203404427,512.0495656132698 677.9010673165321,512.0495656132698 Z "/>
<path style="fill:none;stroke:#000000;stroke-width:1px;stroke-linecap:butt;stroke-linejoin:miter;stroke-opacity:1" d="M718.3455010056496,512.0495656132698 C717.375047981739,512.0495656132698 716.5781636834145,511.2720975279808 716.5781636834145,510.3016594052315 C716.5781636834145,509.33122128248215 717.375047981739,508.55376809835434 718.3455010056496,508.55375319719315 C719.3159540295601,508.55373829603195 720.1128681302071,509.33119148015976 720.1128681302071,510.3016296029091 C720.1128681302071,511.2720826268196 719.3159540295601,512.0495656132698 718.3455010056496,512.0495656132698 Z "/>
<path style="fill:none;stroke:#000000;stroke-width:1px;stroke-linecap:butt;stroke-linejoin:miter;stroke-opacity:1" d="M698.1232841610909,510.29782980680466 C687.021352827549,510.2979043126106 677.9047926068306,501.4035949110985 677.9047926068306,490.3016635775566 C677.9047926068306,479.19973224401474 687.021352827549,470.3055867552757 698.1232841610909,470.30549734830856 C709.2250664830208,470.3054079413414 718.3416267037392,479.1992852091789 718.3418055176735,490.30106753110886 C718.3419843316078,501.40317767858505 709.225394308567,510.2977553009987 698.1232841610909,510.29782980680466 Z "/>
<path style="fill:none;stroke:#000000;stroke-width:1px;stroke-linecap:butt;stroke-linejoin:miter;stroke-opacity:1" d="M809.3455215096474,502.04957515001297 C808.3750684857368,502.04959005117416 807.5781543850899,501.27212196588516 807.5781543850899,500.30166894197464 C807.5781543850899,499.3312159180641 808.3750684857368,498.5537627339363 809.3455215096474,498.5537627339363 C810.3159447312355,498.5537627339363 811.1128588318825,499.3312010169029 811.1128588318825,500.30163913965225 C811.1128588318825,501.2720921635628 810.3159745335579,502.0495602488518 809.3455215096474,502.04957515001297 Z "/>
<path style="fill:none;stroke:#000000;stroke-width:1px;stroke-linecap:butt;stroke-linejoin:miter;stroke-opacity:1" d="M849.7899551987648,502.04957515001297 C848.8195021748543,502.04957515001297 848.0226178765297,501.27210706472397 848.0226178765297,500.30166894197464 C848.0226178765297,499.3312308192253 848.8195021748543,498.5537627339363 849.7899551987648,498.5537627339363 C850.7603784203529,498.5537627339363 851.5572925209999,499.3312010169029 851.5572925209999,500.30163913965225 C851.5572925209999,501.2720921635628 850.7604082226753,502.04957515001297 849.7899551987648,502.04957515001297 Z "/>
<path style="fill:none;stroke:#000000;stroke-width:1px;stroke-linecap:butt;stroke-linejoin:miter;stroke-opacity:1" d="M809.3455215096474,542.0495668053627 C808.3750684857368,542.0495817065239 807.5781543850899,541.2721136212349 807.5781543850899,540.3016605973244 C807.5781543850899,539.3312075734138 808.3750684857368,538.553754389286 809.3455215096474,538.553754389286 C810.3159447312355,538.553754389286 811.1128588318825,539.3311926722527 811.1128588318825,540.301630795002 C811.1128588318825,541.2720838189125 810.3159745335579,542.0495519042015 809.3455215096474,542.0495668053627 Z "/>
<path style="fill:none;stroke:#000000;stroke-width:1px;stroke-linecap:butt;stroke-linejoin:miter;stroke-opacity:1" d="M849.7899551987648,542.0495668053627 C848.8195021748543,542.0495668053627 848.0226178765297,541.2720987200737 848.0226178765297,540.3016605973244 C848.0226178765297,539.331222474575 848.8195021748543,538.553754389286 849.7899551987648,538.553754389286 C850.7603784203529,538.553754389286 851.5572925209999,539.3311926722527 851.5572925209999,540.301630795002 C851.5572925209999,541.2720838189125 850.7604082226753,542.0495668053627 849.7899551987648,542.0495668053627 Z "/>
<path style="fill:none;stroke:#000000;stroke-width:1px;stroke-linecap:butt;stroke-linejoin:miter;stroke-opacity:1" d="M829.5677085518837,540.2978309988976 C818.4657772183418,540.2979055047035 809.3492169976234,531.4035961031914 809.3492169976234,520.3016647696495 C809.3492169976234,509.19973343610764 818.4657772183418,500.3055879473686 829.5677085518837,500.30549854040146 C840.6694908738136,500.3054091334343 849.7860808968544,509.1992864012718 849.7862597107887,520.3010687232018 C849.786438524723,531.403178870678 840.6698186993599,540.2977564930916 829.5677085518837,540.2978309988976 Z "/>
<path style="fill:none;stroke:#000000;stroke-width:1px;stroke-linecap:butt;stroke-linejoin:miter;stroke-opacity:1" d="M61.12328964471817,502.04957515001297 C60.15283662080765,502.04959005117416 59.355922520160675,501.27212196588516 59.355922520160675,500.30166894197464 C59.355922520160675,499.3312159180641 60.15283662080765,498.5537627339363 61.12328964471817,498.5537627339363 C62.093712866306305,498.5537627339363 62.89062696695328,499.3312010169029 62.89062696695328,500.30163913965225 C62.89062696695328,501.2720921635628 62.09374266862869,502.0495602488518 61.12328964471817,502.04957515001297 Z "/>
<path style="fill:none;stroke:#000000;stroke-width:1px;stroke-linecap:butt;stroke-linejoin:miter;stroke-opacity:1" d="M101.5677233338356,502.04957515001297 C100.59727030992508,502.04957515001297 99.8003860116005,501.27210706472397 99.8003860116005,500.30166894197464 C99.8003860116005,499.3312308192253 100.59727030992508,498.5537627339363 101.5677233338356,498.5537627339363 C102.53814655542374,498.5537627339363 103.33506065607071,499.3312010169029 103.33506065607071,500.30163913965225 C103.33506065607071,501.2720921635628 102.53817635774612,502.04957515001297 101.5677233338356,502.04957515001297 Z "/>
<path style="fill:none;stroke:#000000;stroke-width:1px;stroke-linecap:butt;stroke-linejoin:miter;stroke-opacity:1" d="M61.12328964471817,542.0495668053627 C60.15283662080765,542.0495817065239 59.355922520160675,541.2721136212349 59.355922520160675,540.3016605973244 C59.355922520160675,539.3312075734138 60.15283662080765,538.553754389286 61.12328964471817,538.553754389286 C62.093712866306305,538.553754389286 62.89062696695328,539.3311926722527 62.89062696695328,540.301630795002 C62.89062696695328,541.2720838189125 62.09374266862869,542.0495519042015 61.12328964471817,542.0495668053627 Z "/>
<path style="fill:none;stroke:#000000;stroke-width:1px;stroke-linecap:butt;stroke-linejoin:miter;stroke-opacity:1" d="M101.5677233338356,542.0495668053627 C100.59727030992508,542.0495668053627 99.8003860116005,541.2720987200737 99.8003860116005,540.3016605973244 C99.8003860116005,539.331222474575 100.59727030992508,538.553754389286 101.5677233338356,538.553754389286 C102.53814655542374,538.553754389286 103.33506065607071,539.3311926722527 103.33506065607071,540.301630795002 C103.33506065607071,541.2720838189125 102.53817635774612,542.0495668053627 101.5677233338356,542.0495668053627 Z "/>
<path style="fill:none;stroke:#000000;stroke-width:1px;stroke-linecap:butt;stroke-linejoin:miter;stroke-opacity:1" d="M81.3454766869545,540.2978309988976 C70.24354535341263,540.2979055047035 61.126985132694244,531.4035961031914 61.126985132694244,520.3016647696495 C61.126985132694244,509.19973343610764 70.24354535341263,500.3055879473686 81.3454766869545,500.30549854040146 C92.44725900888443,500.3054091334343 101.5638490319252,509.1992864012718 101.56402784585953,520.3010687232018 C101.56420665979385,531.403178870678 92.4475868344307,540.2977564930916 81.3454766869545,540.2978309988976 Z "/>
<path style="fill:none;stroke:#000000;stroke-width:1px;stroke-linecap:butt;stroke-linejoin:miter;stroke-opacity:1" d="M192.5677438378334,472.0495739579201 C191.59729081392288,472.0495739579201 190.8004065155983,471.2721058726311 190.8004065155983,470.30166774988174 C190.8004065155983,469.3312296271324 191.59729081392288,468.5537615418434 192.5677438378334,468.5537615418434 C193.53816705942154,468.5537615418434 194.3350811600685,469.33119982481 194.3350811600685,470.30163794755936 C194.3350811600685,471.2720909714699 193.53819686174393,472.0495739579201 192.5677438378334,472.0495739579201 Z "/>
<path style="fill:none;stroke:#000000;stroke-width:1px;stroke-linecap:butt;stroke-linejoin:miter;stroke-opacity:1" d="M233.01217752695084,472.0495739579201 C232.0417394042015,472.0495739579201 231.24484020471573,471.2721058726311 231.24484020471573,470.30166774988174 C231.24484020471573,469.3312296271324 232.0417394042015,468.5537764430046 233.01217752695084,468.5537615418434 C233.98261564970016,468.5537466406822 234.77952975034714,469.33119982481 234.77954465150833,470.30163794755936 C234.77955955266953,471.2720909714699 233.98263055086136,472.0495739579201 233.01217752695084,472.0495739579201 Z "/>
<path style="fill:none;stroke:#000000;stroke-width:1px;stroke-linecap:butt;stroke-linejoin:miter;stroke-opacity:1" d="M192.5677438378334,512.0495656132698 C191.59729081392288,512.0495656132698 190.8004065155983,511.2720975279808 190.8004065155983,510.3016594052315 C190.8004065155983,509.33122128248215 191.59729081392288,508.55375319719315 192.5677438378334,508.55375319719315 C193.53816705942154,508.55375319719315 194.3350811600685,509.33119148015976 194.3350811600685,510.3016296029091 C194.3350811600685,511.2720826268196 193.53819686174393,512.0495656132698 192.5677438378334,512.0495656132698 Z "/>
<path style="fill:none;stroke:#000000;stroke-width:1px;stroke-linecap:butt;stroke-linejoin:miter;stroke-opacity:1" d="M233.01217752695084,512.0495656132698 C232.0417394042015,512.0495656132698 231.24484020471573,511.2720975279808 231.24484020471573,510.3016594052315 C231.24484020471573,509.33122128248215 232.0417394042015,508.55376809835434 233.01217752695084,508.55375319719315 C233.98261564970016,508.55373829603195 234.77952975034714,509.33119148015976 234.77954465150833,510.3016296029091 C234.77955955266953,511.2720826268196 233.98263055086136,512.0495656132698 233.01217752695084,512.0495656132698 Z "/>
<path style="fill:none;stroke:#000000;stroke-width:1px;stroke-linecap:butt;stroke-linejoin:miter;stroke-opacity:1" d="M212.78996068239212,510.29782980680466 C201.68802934885025,510.2979043126106 192.57146912813187,501.4035949110985 192.57146912813187,490.3016635775566 C192.57146912813187,479.19973224401474 201.68802934885025,470.3055867552757 212.78996068239212,470.30549734830856 C223.89174300432205,470.3054079413414 233.00831812620163,479.1992852091789 233.00848203897476,490.30106753110886 C233.0086459517479,501.40317767858505 223.89207082986832,510.2977553009987 212.78996068239212,510.29782980680466 Z "/>
</svg>