<?xml version="1.0" standalone="no"?>
<!DOCTYPE svg PUBLIC "-//W3C//DTD SVG 20010904//EN" "http://www.w3.org/TR/2001/REC-SVG-20010904/DTD/svg10.dtd">
<svg width="488.9519289135933mm" height="313.2212162017822mm"  viewBox="0 0 488.9519289135933 313.2212162017822" xmlns="http://www.w3.org/2000/svg">
    <title>Bezier Curve : BiegeFormLeicht.001</title>
    <desc>This is an exported Bezier xml_path from Blender, using the ExportScript by maybites.ch and Craxic</desc>
<path style="fill:none;stroke:#000000;stroke-width:1px;stroke-linecap:butt;stroke-linejoin:miter;stroke-opacity:1" d="M481.92932844907045,-855.7052883505821 C481.58424735814333,-856.9932255148888 481.2391364648938,-858.2811030745506 480.8940553739667,-859.5690402388573 C481.28044248372316,-859.6725735068321 481.66679979115725,-859.776106774807 482.0531869009137,-859.8796400427818 C481.85476303845644,-860.6201681494713 481.65633917599916,-861.3607558608055 481.4579153135419,-862.101283967495 C481.0715282037854,-861.9977506995201 480.68511129170656,-861.8942174315453 480.2987241819501,-861.7906841635704 C480.06578923016787,-862.6600179076195 479.83285427838564,-863.5292920470238 479.5999193266034,-864.3986257910728 C478.6340260580182,-864.1398224234581 477.668132789433,-863.8810190558434 476.7022395208478,-863.6222156882286 C476.93517447263,-862.7528819441795 477.16810942441225,-861.8836078047752 477.4010443761945,-861.0142740607262 C477.014657266438,-860.9107407927513 476.62824035435915,-860.8071479201317 476.2418532446027,-860.7036146521568 C476.44027710705996,-859.9630865454674 476.6387307718396,-859.2225584387779 476.8371546342969,-858.4820303320885 C477.22354174405336,-858.5855636000633 477.60992885380983,-858.6890372633934 477.9963159635663,-858.7925705313683 C478.3413970544934,-857.5046929717064 478.68650794774294,-856.2167558073997 479.03158903867006,-854.9288782477379 C463.14531207829714,-850.6721529364586 447.2590053156018,-846.4154276251793 431.3727283552289,-842.1587023139 C431.0276174619794,-843.4465798735619 430.68253637105227,-844.7345170378685 430.33742547780275,-846.0223945975304 C430.7238125875592,-846.1259278655052 431.1102294996381,-846.2295207381248 431.49661660939455,-846.3330540060997 C431.2981927469373,-847.0735821127892 431.0997390821576,-847.8141102194786 430.90131521970034,-848.5546383261681 C430.51492810994387,-848.4511050581932 430.128511197865,-848.3476313948631 429.74212408810854,-848.2440981268883 C429.5091891363263,-849.1134318709373 429.2762541845441,-849.9827060103416 429.04331923276186,-850.8520397543907 C428.07742596417665,-850.593236386776 427.11153269559145,-850.3344330191612 426.14563942700624,-850.0756296515465 C426.37857437878847,-849.2062959074974 426.6115093305707,-848.3370217680931 426.8444442823529,-847.467688024044 C426.45805717259645,-847.3641547560692 426.0716402605176,-847.2605618834496 425.6852531507611,-847.1570286154747 C425.8836770132184,-846.4165005087852 426.08213067799807,-845.6759724020958 426.28055454045534,-844.9354442954063 C426.6669416502118,-845.0389775633812 427.05335856229067,-845.1424512267113 427.43974567204714,-845.2459844946861 C427.78485656529665,-843.9581069350243 428.1299376562238,-842.6701697707176 428.4750485494733,-841.3822922110558 C412.58877158910036,-837.1255668997765 396.70246482640505,-832.8688415884972 380.8161878660321,-828.6121162772179 C380.471106775105,-829.9000534415245 380.1259958818555,-831.1879310011864 379.78091479092836,-832.475868165493 C380.16730190068483,-832.5794014334679 380.5536592081189,-832.6829347014427 380.9400463178754,-832.7864679694176 C380.7416224554181,-833.526996076107 380.54319859296083,-834.2675241827965 380.34477473050356,-835.0080522894859 C379.9583876207471,-834.9045190215111 379.572030313313,-834.801045358181 379.18564320355654,-834.6975120902061 C378.9527082517743,-835.5668458342552 378.7197732999921,-836.4361199736595 378.48683834820986,-837.3054537177086 C377.52091527730227,-837.0466503500938 376.55502200871706,-836.7878469824791 375.58909893780947,-836.5290436148643 C375.8220338895917,-835.6597098708153 376.0549688413739,-834.7903761267662 376.28790379315615,-833.9210423827171 C375.9015166833997,-833.8175091147423 375.5150997713208,-833.7139758467674 375.12871266156435,-833.6104425787926 C375.3271365240216,-832.8699144721031 375.5255603864789,-832.1293267607689 375.7239842489362,-831.3887986540794 C376.11037135869265,-831.4923319220543 376.4967882707715,-831.5958651900291 376.883175380528,-831.699398458004 C377.2282564714551,-830.4115208983421 377.5733673647046,-829.1235837340355 377.91844845563173,-827.8357061743736 C362.0321714952588,-823.5789808630943 346.14592433720827,-819.322255551815 330.25964737683535,-815.0655302405357 C329.91453648358583,-816.3534674048424 329.5694553926587,-817.6413449645042 329.2243444994092,-818.9292821288109 C329.6107018068433,-819.0328153967857 329.99708891659975,-819.1363486647606 330.38344622403383,-819.2398819327354 C330.18502236157656,-819.9804100394249 329.9865984991193,-820.7209381461143 329.788174636662,-821.4614662528038 C329.4018173292279,-821.357932984829 329.01543021947145,-821.2544593214989 328.6290729120374,-821.150926053524 C328.39613796025515,-822.0202597975731 328.16317320615053,-822.8895339369774 327.9302382543683,-823.7588676810265 C326.9643151834607,-823.5000643134117 325.9984219148755,-823.241260945797 325.0324988439679,-822.9824575781822 C325.26543379575014,-822.1131238341331 325.49836874753237,-821.2437900900841 325.7313036993146,-820.374456346035 C325.3449165895581,-820.2709230780602 324.95855928212404,-820.1673898100853 324.5721721723676,-820.0638565421104 C324.77059603482485,-819.323328435421 324.9690198972821,-818.5827407240868 325.1674437597394,-817.8422126173973 C325.55383086949587,-817.9457458853722 325.94018817692995,-818.049279153347 326.3265752866864,-818.1528124213219 C326.67165637761354,-816.86493486166 327.01676727086306,-815.5769976973534 327.3618483617902,-814.2891201376915 C311.47560120373964,-810.0323948264122 295.5893242433667,-805.7756695151329 279.703062184155,-801.5189442038536 C279.35798109322786,-802.8068813681602 279.01288510113955,-804.0947589278221 278.6678040102124,-805.3826960921288 C279.0541762188077,-805.4862293601036 279.44056332856417,-805.5897626280785 279.82693553715944,-805.6932958960533 C279.628496773541,-806.4338240027428 279.4300580099225,-807.1743521094322 279.23161924630404,-807.9148802161217 C278.84524703770876,-807.8113469481468 278.4588599279523,-807.7078732848167 278.072487719357,-807.6043400168419 C277.8395527675748,-808.473673760891 277.60661781579256,-809.3429479002953 277.37368286401033,-810.2122816443443 C276.40777469426394,-809.9534782767296 275.44185162335634,-809.6946749091148 274.47594345360994,-809.4358715415001 C274.708863504231,-808.566537797451 274.9417984560132,-807.697204053402 275.17471850663424,-806.8278703093529 C274.78834629803896,-806.724337041378 274.4019591882825,-806.6208037734032 274.0155869796872,-806.5172705054283 C274.2140257433057,-805.7767423987389 274.41246450692415,-805.0361546874046 274.6109032705426,-804.2956265807152 C274.9972754791379,-804.39915984869 275.38366258889437,-804.5026931166649 275.77003479748964,-804.6062263846397 C276.11511588841677,-803.3183488249779 276.4602118805051,-802.0304116606712 276.8052929714322,-800.7425341010094 C260.9190309122205,-796.4858087897301 245.03276885300875,-792.2290834784508 229.14650679379702,-787.9723581671715 C228.8014108017087,-789.2602953314781 228.45632971078157,-790.54817289114 228.11123371869326,-791.8361100554466 C228.49760592728853,-791.9396433234215 228.883993037045,-792.0431765913963 229.27036524564028,-792.1467098593712 C229.071941383183,-792.8872379660606 228.87350261956453,-793.6277660727501 228.67507875710726,-794.3682941794395 C228.28870654851198,-794.2647609114647 227.9023194387555,-794.1612872481346 227.51594723016024,-794.0577539801598 C227.283012278378,-794.9270877242088 227.0500624254346,-795.7963618636131 226.81712747365236,-796.6656956076622 C225.85120440274477,-796.4068922400475 224.88528133183718,-796.1480888724327 223.91935826092958,-795.889285504818 C224.1522932127118,-795.0199517607689 224.38524306565523,-794.1506180167198 224.61817801743746,-793.2812842726707 C224.23180580884218,-793.1777510046959 223.8454186990857,-793.074217736721 223.45904649049044,-792.9706844687462 C223.6574703529477,-792.2301563620567 223.85590911656618,-791.4895686507225 224.05433297902346,-790.749040544033 C224.44070518761873,-790.8525738120079 224.8270922973752,-790.9561070799828 225.21346450597048,-791.0596403479576 C225.5585604980588,-789.7717627882957 225.90364158898592,-788.4838256239891 226.24873758107424,-787.1959480643272 C210.3624606207013,-782.9392227530479 194.4761836603284,-778.6824974417686 178.58990669995546,-774.4257721304893 C178.24481070786715,-775.7136794924736 177.89969981461763,-777.0015570521355 177.55460382252932,-778.2894644141197 C177.94099093228579,-778.3929976820946 178.32737804204226,-778.4965607523918 178.71376515179873,-778.6000940203667 C178.51532638818026,-779.3406221270561 178.31690252572298,-780.0811204314232 178.1184637621045,-780.8216485381126 C177.73209155350924,-780.7181152701378 177.34571934491396,-780.6146416068077 176.95934713631868,-780.5111083388329 C176.72641218453646,-781.3804420828819 176.49347723275423,-782.249775826931 176.260542280972,-783.1191095709801 C175.29461175948381,-782.8603062033653 174.32868868857622,-782.6014432311058 173.36275816708803,-782.3426398634911 C173.59570056945086,-781.473306119442 173.82863552123308,-780.6039723753929 174.0615779235959,-779.7346386313438 C173.67519826442003,-779.631105363369 173.28882605582476,-779.5275720953941 172.90244639664888,-779.4240388274193 C173.10087025910616,-778.6834809184074 173.29929412156343,-777.942952811718 173.4977179840207,-777.2023949027061 C173.88410509377718,-777.305928170681 174.27048475295305,-777.4094912409782 174.65687186270952,-777.5130245089531 C175.00196785479784,-776.2251469492912 175.34705639630556,-774.937239587307 175.69215238839388,-773.6493620276451 C167.4201080277562,-770.7875046133995 159.14805621653795,-767.9256173968315 150.8760118559003,-765.0637599825859 C143.8647100403905,-761.5950378775597 136.8534156754613,-758.1263157725334 129.8421138599515,-754.6575936675072 C129.17543590813875,-755.8122846484184 128.5087654069066,-756.9669756293297 127.84208745509386,-758.1216666102409 C128.18850965052843,-758.3216997981071 128.5349392965436,-758.521703183651 128.88136149197817,-758.7217363715172 C128.49802166968584,-759.3856725096703 128.1146892979741,-760.0496086478233 127.73134947568178,-760.7135447859764 C127.38493473082781,-760.5135414004326 127.03852743655443,-760.3135678172112 126.69211269170046,-760.1135644316673 C126.24211252480745,-760.8929845690727 125.79211235791445,-761.6724345088005 125.34211219102144,-762.4518546462059 C124.4760865047574,-761.9518312811852 123.61006826907396,-761.4518377184868 122.74404258280993,-760.951814353466 C123.19404274970293,-760.1723942160606 123.64405036717653,-759.3929740786552 124.09405053406954,-758.6135539412498 C123.74762833863497,-758.413550555706 123.401213593781,-758.2135471701622 123.05479139834642,-758.0135437846184 C123.43812377005816,-757.3495778441429 123.82145614176989,-756.6856417059898 124.20478851348162,-756.0216757655144 C124.55121070891619,-756.2216791510582 124.89762545377016,-756.4217123389244 125.24404764920473,-756.6217157244682 C125.91071815043688,-755.467024743557 126.57738120108843,-754.3123337626457 127.24405170232058,-753.1576427817345 C120.22193164378405,-748.4050366282463 113.19980785995722,-743.6524602770805 106.17768780142069,-738.8998541235924 C100.07570699602365,-733.5819575190544 93.97372246533632,-728.2640609145164 87.87174165993929,-722.9461643099785 C86.92892656475306,-723.8889607787132 85.98610774427652,-724.831757247448 85.04329264909029,-725.7745537161827 C85.32614276558161,-726.0574075579643 85.60898915678263,-726.3402912020683 85.89183927327394,-726.62314504385 C85.34972385317087,-727.1652492880821 84.8076121583581,-727.7073535323143 84.26549673825502,-728.2494577765465 C83.9826540723443,-727.9666039347649 83.69980768114328,-727.6837798953056 83.41696501523256,-727.400926053524 C82.78056622296572,-728.0373248457909 82.14416743069887,-728.6737236380577 81.50776863843203,-729.3101224303246 C80.80066383630037,-728.6030027270317 80.09355903416872,-727.8959128260612 79.38645423203707,-727.1887931227684 C80.02285302430391,-726.5523943305016 80.65925181657076,-725.9159955382347 81.2956506088376,-725.2795967459679 C81.01280235499144,-724.9967429041862 80.72995223850012,-724.713918864727 80.44710398465395,-724.4310650229454 C80.98921754211187,-723.8889607787132 81.53133296221495,-723.3468267321587 82.07344651967287,-722.8047224879265 C82.35629663616419,-723.0875763297081 82.63914302736521,-723.3704301714897 82.92199314385653,-723.6532840132713 C83.86480451375246,-722.7104875445366 84.8076158836484,-721.7676612734795 85.75042725354433,-720.8248648047447 C80.41981623321772,-714.7121402621269 75.0892089381814,-708.5994157195091 69.75859791785479,-702.4866911768913 C65.01872946321964,-695.475307404995 60.278861939907074,-688.4639236330986 55.53899348527193,-681.4525398612022 C54.38428760319948,-682.1191880106926 53.22958172112703,-682.7858659625053 52.074875839054585,-683.4525141119957 C52.27487922459841,-683.7989363074303 52.47488261014223,-684.1453585028648 52.674885995686054,-684.4917806982994 C52.010934956371784,-684.87509816885 51.346983917057514,-685.2584454417229 50.683032877743244,-685.6417629122734 C50.48302949219942,-685.2953407168388 50.2830261066556,-684.9489483237267 50.083022721111774,-684.6025261282921 C49.30359757784754,-685.0525113940239 48.52417266741395,-685.5025264620781 47.744747407734394,-685.9525117278099 C47.24474872276187,-685.0864860415459 46.74475050345063,-684.2204603552818 46.24475181847811,-683.3544346690178 C47.02417707815766,-682.904449403286 47.80360187217593,-682.4544343352318 48.58302713185549,-682.0044490695 C48.383023746311665,-681.6580268740654 48.18302036076784,-681.3116344809532 47.98301697522402,-680.9652122855186 C48.64697313681245,-680.5818650126457 49.31092894915491,-680.1985475420952 49.97488499432802,-679.8152002692223 C50.174888379871845,-680.1616224646568 50.37489176541567,-680.5080446600914 50.57489515095949,-680.854466855526 C51.729596143588424,-680.1877889037132 52.88429690338671,-679.5211407542229 54.038997896015644,-678.8544628024101 C50.56918358244002,-671.8427214026451 47.09936950169504,-664.8310098052025 43.62955518811941,-657.8192684054375 C40.768799528479576,-649.547663629055 37.908044800162315,-641.2760290503502 35.04728914052248,-633.0044242739677 C33.759387366473675,-633.3495053648949 32.47148372977972,-633.6946162581444 31.183581955730915,-634.0396973490715 C31.28710963577032,-634.426084458828 31.390639178454876,-634.812441766262 31.49416685849428,-635.1988288760185 C30.753623850643635,-635.3972527384758 30.013080842792988,-635.5956766009331 29.27253783494234,-635.7941004633904 C29.169010154902935,-635.4077133536339 29.06548061221838,-635.0213560461998 28.961952932178974,-634.6349689364433 C28.092619188129902,-634.8679038882256 27.22328544408083,-635.1008388400078 26.353951700031757,-635.33377379179 C26.095133431255817,-634.3678507208824 25.836315162479877,-633.4019276499748 25.577496893703938,-632.4360045790672 C26.44683063775301,-632.203069627285 27.316164381802082,-631.9701346755028 28.185498125851154,-631.7371997237206 C28.08197044581175,-631.3508126139641 27.978440903127193,-630.96445530653 27.874913223087788,-630.5780681967735 C28.615456230938435,-630.3796443343163 29.35599923878908,-630.181220471859 30.09654224663973,-629.9827966094017 C30.200069926679134,-630.3691837191582 30.30359946936369,-630.7555410265923 30.407127149403095,-631.1419281363487 C31.6950289234519,-630.7968470454216 32.982932560145855,-630.4517361521721 34.27083433419466,-630.106655061245 C32.72567891329527,-622.3263117671013 31.180523492395878,-614.54599827528 29.635368071496487,-606.7656549811363 C29.021285630762577,-598.1449458003044 28.407203190028667,-589.5242068171501 27.793120749294758,-580.9034976363182 C26.45978719741106,-580.9034976363182 25.126453645527363,-580.9034976363182 23.793120093643665,-580.9034976363182 C23.793120093643665,-581.3035044074059 23.793120093643665,-581.7035111784935 23.793120093643665,-582.1035179495811 C23.026453487575054,-582.1035179495811 22.259786881506443,-582.1035179495811 21.493120275437832,-582.1035179495811 C21.493120275437832,-581.7035111784935 21.493120275437832,-581.3035044074059 21.493120275437832,-580.9034976363182 C20.59311994165182,-580.9034976363182 19.69311774522066,-580.9034976363182 18.79311741143465,-580.9034976363182 C18.79311741143465,-579.9035105109215 18.79311741143465,-578.9034935832024 18.79311741143465,-577.9035064578056 C19.69311774522066,-577.9035064578056 20.59311994165182,-577.9035064578056 21.493120275437832,-577.9035064578056 C21.493120275437832,-577.503499686718 21.493120275437832,-577.1034929156303 21.493120275437832,-576.7034861445427 C22.259786881506443,-576.7034861445427 23.026453487575054,-576.7034861445427 23.793120093643665,-576.7034861445427 C23.793120093643665,-577.1034929156303 23.793120093643665,-577.503499686718 23.793120093643665,-577.9035064578056 C25.126453645527363,-577.9035064578056 26.45978719741106,-577.9035064578056 27.793120749294758,-577.9035064578056 C27.793128199875355,-575.070169866085 27.79313565045595,-572.2368332743645 27.79314310103655,-569.4034966826439 C25.126475997269154,-569.4034966826439 22.45980889350176,-569.4034966826439 19.793141789734364,-569.4034966826439 C19.87900973111391,-566.0690638422966 19.96487580984831,-562.7346011996269 20.050743751227856,-559.4001683592796 C13.384077854454517,-559.4001683592796 6.7145043686032295,-559.4001683592796 0.05074233561754227,-559.4001683592796 C26.69377640634775,-792.7462133765221 105.46198502928019,-784.0417894721031 484.1485285833478,-872.6213845610619 C485.76658607274294,-867.6566752791405 487.3846137598157,-862.6919063925743 489.00267124921083,-857.7271971106529 C486.6448903158307,-857.0532473921776 484.2871093824506,-856.3792380690575 481.92932844907045,-855.7052883505821 Z "/>
</svg>