<?xml version="1.0" standalone="no"?>
<!DOCTYPE svg PUBLIC "-//W3C//DTD SVG 20010904//EN" "http://www.w3.org/TR/2001/REC-SVG-20010904/DTD/svg10.dtd">
<svg width="434.77776646614075mm" height="430.00003695487976mm"  viewBox="0 0 434.77776646614075 430.00003695487976" xmlns="http://www.w3.org/2000/svg">
    <title>Bezier Curve : TableBottomCoverCore.Cut</title>
    <desc>This is an exported Bezier xml_path from Blender, using the ExportScript by maybites.ch and Craxic</desc>
<path style="fill:none;stroke:#000000;stroke-width:1px;stroke-linecap:butt;stroke-linejoin:miter;stroke-opacity:1" d="M0.21738886833190918,430.2150369733572 C0.21738886833190918,263.5483169108629 0.21738886833190918,133.5483328551054 0.21738886833190918,0.21500001847743988 C164.9951446056366,0.21500001847743988 270.10624438524246,0.21500001847743988 434.99515533447266,0.21500001847743988 C434.99515533447266,133.5483477562666 434.99515533447266,263.5483318120241 434.99515533447266,430.2150369733572 C270.10624438524246,430.2150369733572 164.9951446056366,430.2150369733572 0.21738886833190918,430.2150369733572 Z "/>
<path style="fill:none;stroke:#000000;stroke-width:1px;stroke-linecap:butt;stroke-linejoin:miter;stroke-opacity:1" d="M9.567033052444458,75.21500299870968 C9.567033052444458,74.24167405068874 10.366316437721252,73.4618962854147 11.339645385742188,73.4618962854147 C12.312974333763123,73.4618962854147 13.112257719039917,74.24167405068874 13.112257719039917,75.21500299870968 C13.112257719039917,76.18833194673061 12.312974333763123,76.96810971200466 11.339645385742188,76.96810971200466 C10.366316437721252,76.96810971200466 9.567033052444458,76.18833194673061 9.567033052444458,75.21500299870968 Z "/>
<path style="fill:none;stroke:#000000;stroke-width:1px;stroke-linecap:butt;stroke-linejoin:miter;stroke-opacity:1" d="M15.38404405117035,385.21500538289547 C15.38404405117035,378.5483450740576 15.38404405117035,371.8816847652197 15.38404405117035,365.2150244563818 C12.485529780387878,365.2150244563818 9.587000608444214,365.2150244563818 6.688486337661743,365.2150244563818 C6.688486337661743,371.8816847652197 6.688486337661743,378.5483450740576 6.688486337661743,385.21500538289547 C9.587000608444214,385.21500538289547 12.485529780387878,385.21500538289547 15.38404405117035,385.21500538289547 Z "/>
<path style="fill:none;stroke:#000000;stroke-width:1px;stroke-linecap:butt;stroke-linejoin:miter;stroke-opacity:1" d="M15.38404405117035,65.21502743661404 C15.38404405117035,58.548367127776146 15.38404405117035,51.881706818938255 15.38404405117035,45.215046510100365 C12.485529780387878,45.215046510100365 9.587000608444214,45.215046510100365 6.688486337661743,45.215046510100365 C6.688486337661743,51.881706818938255 6.688486337661743,58.548367127776146 6.688486337661743,65.21502743661404 C9.587000608444214,65.21502743661404 12.485529780387878,65.21502743661404 15.38404405117035,65.21502743661404 Z "/>
<path style="fill:none;stroke:#000000;stroke-width:1px;stroke-linecap:butt;stroke-linejoin:miter;stroke-opacity:1" d="M9.567033052444458,355.2150041908026 C9.567033052444458,354.24167524278164 10.366316437721252,353.4618974775076 11.339645385742188,353.4618974775076 C12.312974333763123,353.4618974775076 13.112257719039917,354.24167524278164 13.112257719039917,355.2150041908026 C13.112257719039917,356.1883331388235 12.312974333763123,356.96811090409756 11.339645385742188,356.96811090409756 C10.366316437721252,356.96811090409756 9.567033052444458,356.1883331388235 9.567033052444458,355.2150041908026 Z "/>
<path style="fill:none;stroke:#000000;stroke-width:1px;stroke-linecap:butt;stroke-linejoin:miter;stroke-opacity:1" d="M359.1618049144745,9.461930498480797 C360.1351487636566,9.461915597319603 360.9344172477722,10.241708263754845 360.9344172477722,11.215052112936974 C360.9344172477722,12.188395962119102 360.1351487636566,12.968203529715538 359.1618049144745,12.968188628554344 C358.18847596645355,12.96817372739315 357.38925218582153,12.188381060957909 357.38925218582153,11.215052112936974 C357.38925218582153,10.241723164916039 358.18847596645355,9.46194539964199 359.1618049144745,9.461930498480797 Z "/>
<path style="fill:none;stroke:#000000;stroke-width:1px;stroke-linecap:butt;stroke-linejoin:miter;stroke-opacity:1" d="M45.71735441684723,15.215060219168663 C52.458088397979736,15.215060219168663 59.19883728027344,15.215060219168663 65.93957126140594,15.215060219168663 C65.93957126140594,12.348389729857445 65.93957126140594,9.481704339385033 65.93957126140594,6.615033850073814 C59.19883728027344,6.615033850073814 52.458088397979736,6.615033850073814 45.71735441684723,6.615033850073814 C45.71735441684723,9.481704339385033 45.71735441684723,12.348389729857445 45.71735441684723,15.215060219168663 Z "/>
<path style="fill:none;stroke:#000000;stroke-width:1px;stroke-linecap:butt;stroke-linejoin:miter;stroke-opacity:1" d="M369.27291333675385,15.215015515685081 C376.01364731788635,15.215015515685081 382.75436639785767,15.215015515685081 389.4951003789902,15.215015515685081 C389.4951003789902,12.348345026373863 389.495085477829,9.481674537062645 389.495085477829,6.615004047751427 C382.7543514966965,6.615004047751427 376.01363241672516,6.615004047751427 369.27289843559265,6.615004047751427 C369.27289843559265,9.481674537062645 369.27291333675385,12.348345026373863 369.27291333675385,15.215015515685081 Z "/>
<path style="fill:none;stroke:#000000;stroke-width:1px;stroke-linecap:butt;stroke-linejoin:miter;stroke-opacity:1" d="M76.0506945848465,9.461960300803185 C77.02402353286743,9.461960300803185 77.82326221466064,10.241738066077232 77.82327711582184,11.215067014098167 C77.82329201698303,12.188410863280296 77.02403843402863,12.968233332037926 76.0506945848465,12.968233332037926 C75.07736563682556,12.968233332037926 74.27811205387115,12.18842576444149 74.27811205387115,11.215096816420555 C74.27811205387115,10.24176786839962 75.07736563682556,9.461960300803185 76.0506945848465,9.461960300803185 Z "/>
<path style="fill:none;stroke:#000000;stroke-width:1px;stroke-linecap:butt;stroke-linejoin:miter;stroke-opacity:1" d="M425.6455111503601,355.2150041908026 C425.6455260515213,356.1883331388235 424.8462426662445,356.96812580525875 423.8729137182236,356.96812580525875 C422.89956986904144,356.96812580525875 422.10028648376465,356.1883331388235 422.10030138492584,355.2149892896414 C422.10031628608704,354.24167524278164 422.89959967136383,353.4619421809912 423.8729137182236,353.4619421809912 C424.8462277650833,353.4619421809912 425.6454962491989,354.24169014394283 425.6455111503601,355.2150041908026 Z "/>
<path style="fill:none;stroke:#000000;stroke-width:1px;stroke-linecap:butt;stroke-linejoin:miter;stroke-opacity:1" d="M419.82841074466705,45.21498690545559 C419.82842564582825,51.88164721429348 419.82842564582825,58.548322424292564 419.82844054698944,65.21498273313046 C422.7269697189331,65.21498273313046 425.6254839897156,65.21498273313046 428.52401316165924,65.21498273313046 C428.52401316165924,58.548322424292564 428.52401316165924,51.88164721429348 428.52401316165924,45.21498690545559 C425.6254839897156,45.21498690545559 422.7269399166107,45.21498690545559 419.82841074466705,45.21498690545559 Z "/>
<path style="fill:none;stroke:#000000;stroke-width:1px;stroke-linecap:butt;stroke-linejoin:miter;stroke-opacity:1" d="M419.8285001516342,365.2149797528982 C419.8285001516342,371.8816400617361 419.8285001516342,378.548300370574 419.8285001516342,385.2149606794119 C422.7270293235779,385.2149606794119 425.62554359436035,385.2149457782507 428.524072766304,385.2149457782507 C428.524072766304,378.5482854694128 428.524072766304,371.8816251605749 428.524072766304,365.214964851737 C425.62554359436035,365.214964851737 422.7270293235779,365.2149797528982 419.8285001516342,365.2149797528982 Z "/>
<path style="fill:none;stroke:#000000;stroke-width:1px;stroke-linecap:butt;stroke-linejoin:miter;stroke-opacity:1" d="M425.6454664468765,75.21500299870968 C425.6454664468765,76.18833194673061 424.8462128639221,76.96807990968227 423.8728839159012,76.96809481084347 C422.89954006671906,76.96810971200466 422.10025668144226,76.18834684789181 422.10024178028107,75.21500299870968 C422.1002268791199,74.24167405068874 422.8994953632355,73.46191118657589 423.8728243112564,73.4618962854147 C424.84616816043854,73.4618813842535 425.6454664468765,74.24165914952755 425.6454664468765,75.21500299870968 Z "/>
<path style="fill:none;stroke:#000000;stroke-width:1px;stroke-linecap:butt;stroke-linejoin:miter;stroke-opacity:1" d="M76.05073928833008,420.96813629567623 C75.07741034030914,420.9681511968374 74.27814185619354,420.1883585304022 74.27814185619354,419.21502958238125 C74.27814185619354,418.2416857331991 75.07741034030914,417.4618781656027 76.05075418949127,417.4618930667639 C77.02406823635101,417.4619079679251 77.82324731349945,418.2417155355215 77.82324731349945,419.21502958238125 C77.82324731349945,420.1883287280798 77.02403843402863,420.96812139451504 76.05073928833008,420.96813629567623 Z "/>
<path style="fill:none;stroke:#000000;stroke-width:1px;stroke-linecap:butt;stroke-linejoin:miter;stroke-opacity:1" d="M389.49520468711853,415.2149320691824 C382.75445580482483,415.2149320691824 376.0137218236923,415.2149469703436 369.2729729413986,415.2149469703436 C369.2729729413986,418.081632360816 369.2729729413986,420.9483177512884 369.2729729413986,423.8150031417608 C376.0137218236923,423.8150031417608 382.75445580482483,423.81498824059963 389.49520468711853,423.81498824059963 C389.49520468711853,420.9483028501272 389.49520468711853,418.0816174596548 389.49520468711853,415.2149320691824 Z "/>
<path style="fill:none;stroke:#000000;stroke-width:1px;stroke-linecap:butt;stroke-linejoin:miter;stroke-opacity:1" d="M65.93963086605072,415.21505127847195 C59.19889688491821,415.21505127847195 52.4581778049469,415.21505127847195 45.71744382381439,415.21505127847195 C45.717458724975586,418.08172176778316 45.717458724975586,420.9484071582556 45.71747362613678,423.8150776475668 C52.45820760726929,423.8150776475668 59.1989266872406,423.8150776475668 65.93966066837311,423.8150776475668 C65.93964576721191,420.9484071582556 65.93964576721191,418.08172176778316 65.93963086605072,415.21505127847195 Z "/>
<path style="fill:none;stroke:#000000;stroke-width:1px;stroke-linecap:butt;stroke-linejoin:miter;stroke-opacity:1" d="M359.16184961795807,420.96807669103146 C358.1885355710983,420.96809159219265 357.3892968893051,420.1882989257574 357.3892819881439,419.21498487889767 C357.3892670869827,418.24164102971554 358.18850576877594,417.4618185609579 359.16184961795807,417.4618036597967 C360.135178565979,417.4617887586355 360.9344172477722,418.24158142507076 360.9344321489334,419.2149103730917 C360.9344470500946,420.1882542222738 360.1351934671402,420.96806178987026 359.16184961795807,420.96807669103146 Z "/>
</svg>