<?xml version="1.0" standalone="no"?>
<!DOCTYPE svg PUBLIC "-//W3C//DTD SVG 20010904//EN" "http://www.w3.org/TR/2001/REC-SVG-20010904/DTD/svg10.dtd">
<svg width="180.01042306423187mm" height="180.01042306423187mm"  viewBox="0 0 180.01042306423187 180.01042306423187" xmlns="http://www.w3.org/2000/svg">
    <title>Bezier Curve : Plattform</title>
    <desc>This is an exported Bezier xml_path from Blender, using the ExportScript by maybites.ch and Craxic</desc>
<path style="fill:none;stroke:#000000;stroke-width:1px;stroke-linecap:butt;stroke-linejoin:miter;stroke-opacity:1" d="M0.09000521153211594,90.09521674780946 C0.09000521153211594,40.40106978267431 40.40106978267431,0.09000521153211594 90.09521692927808,0.09000521153211594 C139.7893637046218,0.09000521153211594 180.100428275764,40.40106978267431 180.100428275764,90.09521674780946 C180.100428275764,139.7893637046218 139.7893637046218,180.100428275764 90.09521692927808,180.100428275764 C40.40106978267431,180.100428275764 0.09000521153211594,139.7893637046218 0.09000521153211594,90.09521674780946 Z "/>
<path style="fill:none;stroke:#000000;stroke-width:1px;stroke-linecap:butt;stroke-linejoin:miter;stroke-opacity:1" d="M48.555722795426846,48.555722795426846 C49.4057185575366,47.70572703331709 50.784720443189144,47.70572330802679 51.6347162052989,48.55571907013655 C52.48471196740866,49.405714832246304 52.48471196740866,50.784716717898846 51.6347162052989,51.6347124800086 C50.784720443189144,52.48470824211836 49.405714832246304,52.48470451682806 48.55571907013655,51.634708754718304 C47.70572703331709,50.78471299260855 47.70573075860739,49.405714832246304 48.555722795426846,48.555722795426846 Z "/>
<path style="fill:none;stroke:#000000;stroke-width:1px;stroke-linecap:butt;stroke-linejoin:miter;stroke-opacity:1" d="M128.55001386255026,48.5500193759799 C129.40315749496222,47.696875743567944 130.78727420419455,47.696875743567944 131.6404178366065,48.5500193759799 C132.49356146901846,49.40316300839186 132.49356146901846,50.78727599233389 131.6404178366065,51.640419624745846 C130.78727047890425,52.4935632571578 129.40315749496222,52.4935632571578 128.55001386255026,51.64041589945555 C127.6968702301383,50.78727226704359 127.6968702301383,49.40316300839186 128.55001386255026,48.5500193759799 Z "/>
<path style="fill:none;stroke:#000000;stroke-width:1px;stroke-linecap:butt;stroke-linejoin:miter;stroke-opacity:1" d="M128.5634509846568,128.5634509846568 C129.40917756408453,127.71772440522909 130.78125786036253,127.71772440522909 131.62698443979025,128.5634509846568 C132.47271101921797,129.40917756408453 132.47271101921797,130.78125786036253 131.62698443979025,131.62698443979025 C130.78125786036253,132.47271101921797 129.40917383879423,132.47271474450827 128.5634472593665,131.62698443979025 C127.7177206799388,130.78125786036253 127.71772440522909,129.40917756408453 128.5634509846568,128.5634509846568 Z "/>
<path style="fill:none;stroke:#000000;stroke-width:1px;stroke-linecap:butt;stroke-linejoin:miter;stroke-opacity:1" d="M48.547128550708294,128.54713048785925 C49.40186660736799,127.69239243119955 50.78856121748686,127.69239243119955 51.64329927414656,128.54713048785925 C52.498037330806255,129.40186854451895 52.498041056096554,130.7885631546378 51.643302999436855,131.6433012112975 C50.78856494277716,132.4980392679572 49.40186660736799,132.4980392679572 48.547128550708294,131.6433012112975 C47.692390494048595,130.7885631546378 47.692390494048595,129.40186854451895 48.547128550708294,128.54713048785925 Z "/>
<path style="fill:none;stroke:#000000;stroke-width:1px;stroke-linecap:butt;stroke-linejoin:miter;stroke-opacity:1" d="M110.09521257132292,57.57249366492033 C111.48807439953089,57.57249366492033 112.61793818324804,58.70236303657293 112.61793818324804,60.095223002135754 C112.61793818324804,61.488082967698574 111.48807626217604,62.61794861406088 110.09521629661322,62.61794861406088 C108.7023563310504,62.61794861406088 107.57249440997839,61.488079242408276 107.57249440997839,60.095219276845455 C107.57249440997839,58.702359311282635 108.70235446840525,57.57249366492033 110.09521257132292,57.57249366492033 Z "/>
<path style="fill:none;stroke:#000000;stroke-width:1px;stroke-linecap:butt;stroke-linejoin:miter;stroke-opacity:1" d="M70.09521532803774,57.57249366492033 C71.48807715624571,57.57249366492033 72.61794093996286,58.702359311282635 72.61794093996286,60.095221139490604 C72.61794093996286,61.488081105053425 71.48807901889086,62.61794675141573 70.09521905332804,62.61794675141573 C68.70235908776522,62.61794675141573 67.57249716669321,61.488077379763126 67.57249716669321,60.095217414200306 C67.57249716669321,58.702359311282635 68.70235722512007,57.57249366492033 70.09521532803774,57.57249366492033 Z "/>
<path style="fill:none;stroke:#000000;stroke-width:1px;stroke-linecap:butt;stroke-linejoin:miter;stroke-opacity:1" d="M100.09521465748549,127.57248651236296 C101.48807648569345,127.57248651236296 102.61793933808804,128.70235588401556 102.61794026941061,130.09521584957838 C102.61794120073318,131.4880758151412 101.48807927966118,132.6179451867938 100.09521838277578,132.6179451867938 C98.70235748589039,132.6179451867938 97.57249696180224,131.4880758151412 97.57249649614096,130.09521584957838 C97.57249603047967,128.70235588401556 98.70235469192266,127.57248651236296 100.09521465748549,127.57248651236296 Z "/>
</svg>