<?xml version="1.0" standalone="no"?>
<!DOCTYPE svg PUBLIC "-//W3C//DTD SVG 20010904//EN" "http://www.w3.org/TR/2001/REC-SVG-20010904/DTD/svg10.dtd">
<svg width="317.4915909767151mm" height="314.0025734901428mm"  viewBox="0 0 317.4915909767151 314.0025734901428" xmlns="http://www.w3.org/2000/svg">
    <title>Bezier Curve : TableTopSurfaceTurnTable</title>
    <desc>This is an exported Bezier xml_path from Blender, using the ExportScript by maybites.ch and Craxic</desc>
<path style="fill:none;stroke:#000000;stroke-width:1px;stroke-linecap:butt;stroke-linejoin:miter;stroke-opacity:1" d="M0.15874579548835754,157.15828803907547 C0.15874579548835754,69.99098774790764 71.73724099993706,0.1570012867450714 158.90454161124896,0.1570012867450714 C246.07184156775475,0.1570012867450714 317.65033677220345,69.99098774790764 317.65033677220345,157.15828803907547 C317.65033677220345,244.32558831572533 246.07184156775475,314.1595747768879 158.90454161124896,314.1595747768879 C71.73724099993706,314.1595747768879 0.15874579548835754,244.32558831572533 0.15874579548835754,157.15828803907547 Z "/>
<path style="fill:none;stroke:#000000;stroke-width:1px;stroke-linecap:butt;stroke-linejoin:miter;stroke-opacity:1" d="M179.12675440311432,124.63556495308876 C180.52737601101398,124.63556495308876 181.67751096189022,125.75767454504967 181.67751096189022,127.15829429030418 C181.67751096189022,128.5589140355587 180.52737787365913,129.6810199022293 179.12675812840462,129.6810199022293 C177.7261383831501,129.6810199022293 176.576005294919,128.5589103102684 176.576005294919,127.15829056501389 C176.576005294919,125.75767081975937 177.72613652050495,124.63556495308876 179.12675440311432,124.63556495308876 Z "/>
<path style="fill:none;stroke:#000000;stroke-width:1px;stroke-linecap:butt;stroke-linejoin:miter;stroke-opacity:1" d="M138.68231140077114,124.63556495308876 C140.0829330086708,124.63556495308876 141.23306795954704,125.75767081975937 141.23306795954704,127.15829242765903 C141.23306795954704,128.55891217291355 140.08293487131596,129.68101803958416 138.68231512606144,129.68101803958416 C137.28169538080692,129.68101803958416 136.13156229257584,128.55890844762325 136.13156229257584,127.15828870236874 C136.13156229257584,125.75767081975937 137.28169351816177,124.63556495308876 138.68231140077114,124.63556495308876 Z "/>
<path style="fill:none;stroke:#000000;stroke-width:1px;stroke-linecap:butt;stroke-linejoin:miter;stroke-opacity:1" d="M169.0156450495124,194.6355578005314 C170.41626572608948,194.6355578005314 171.56639974564314,195.7576673924923 171.5664006769657,197.1582871377468 C171.5664016082883,198.55890688300133 170.4162685200572,199.68101647496223 169.01564877480268,199.68101647496223 C167.6150280982256,199.68101647496223 166.46489640697837,198.55890688300133 166.46489594131708,197.1582871377468 C166.4648954756558,195.7576673924923 167.61502623558044,194.6355578005314 169.0156450495124,194.6355578005314 Z "/>
</svg>