<?xml version="1.0" standalone="no"?>
<!DOCTYPE svg PUBLIC "-//W3C//DTD SVG 20010904//EN" "http://www.w3.org/TR/2001/REC-SVG-20010904/DTD/svg10.dtd">
<svg width="908.0000221729279mm" height="590.5000269412994mm"  viewBox="0 0 908.0000221729279 590.5000269412994" xmlns="http://www.w3.org/2000/svg">
    <title>Bezier Curve : TableTopSurfaceCoordinates.Cut</title>
    <desc>This is an exported Bezier xml_path from Blender, using the ExportScript by maybites.ch and Craxic</desc>
<path style="fill:none;stroke:#000000;stroke-width:1px;stroke-linecap:butt;stroke-linejoin:miter;stroke-opacity:1" d="M0.45399999618530273,591.2950205206871 C0.45399999618530273,424.6283190846443 0.45399999618530273,134.12833386659622 0.45399999618530273,0.7949935793876648 C333.42104291915894,0.7949935793876648 585.3770438432693,0.7949935793876648 908.4540221691132,0.7949935793876648 C908.4540221691132,134.12833386659622 908.4540221691132,424.6283190846443 908.4540221691132,591.2950205206871 C585.3770438432693,591.2950205206871 333.42104291915894,591.2950205206871 0.45399999618530273,591.2950205206871 Z "/>
<path style="fill:none;stroke:#000000;stroke-width:1px;stroke-linecap:butt;stroke-linejoin:miter;stroke-opacity:1" d="M159.4539794921875,495.79502815008163 C154.45398426055908,495.79499834775925 154.45398426055908,495.79499834775925 149.45398902893066,495.79499834775925 "/>
<path style="fill:none;stroke:#000000;stroke-width:1px;stroke-linecap:butt;stroke-linejoin:miter;stroke-opacity:1" d="M154.45398426055908,500.79500848054886 C154.45398426055908,495.79499834775925 154.45398426055908,495.79501324892044 154.45398426055908,490.795018017292 "/>
<path style="fill:none;stroke:#000000;stroke-width:1px;stroke-linecap:butt;stroke-linejoin:miter;stroke-opacity:1" d="M359.45398247241974,495.79502815008163 C354.4539797902107,495.79499834775925 354.4539946913719,495.79499834775925 349.4540069103241,495.79499834775925 "/>
<path style="fill:none;stroke:#000000;stroke-width:1px;stroke-linecap:butt;stroke-linejoin:miter;stroke-opacity:1" d="M354.4539946913719,500.79500848054886 C354.4540095925331,495.79499834775925 354.4539946913719,495.79501324892044 354.4539946913719,490.795018017292 "/>
<path style="fill:none;stroke:#000000;stroke-width:1px;stroke-linecap:butt;stroke-linejoin:miter;stroke-opacity:1" d="M459.45398768782616,495.79502815008163 C454.45398144407585,495.79499834775925 454.45399618148804,495.79499834775925 449.4540046751499,495.79499834775925 "/>
<path style="fill:none;stroke:#000000;stroke-width:1px;stroke-linecap:butt;stroke-linejoin:miter;stroke-opacity:1" d="M454.45399618148804,500.79500848054886 C454.4540109189002,495.79499834775925 454.45399618148804,495.79501324892044 454.45399618148804,490.795018017292 "/>
<path style="fill:none;stroke:#000000;stroke-width:1px;stroke-linecap:butt;stroke-linejoin:miter;stroke-opacity:1" d="M559.453985452652,495.79502815008163 C554.453982770443,495.79499834775925 554.4539976716042,495.79499834775925 549.4540098905563,495.79499834775925 "/>
<path style="fill:none;stroke:#000000;stroke-width:1px;stroke-linecap:butt;stroke-linejoin:miter;stroke-opacity:1" d="M554.4539976716042,500.79500848054886 C554.4540125727654,495.79499834775925 554.4539976716042,495.79501324892044 554.4539976716042,490.795018017292 "/>
<path style="fill:none;stroke:#000000;stroke-width:1px;stroke-linecap:butt;stroke-linejoin:miter;stroke-opacity:1" d="M759.4540033340454,495.79502815008163 C754.454008102417,495.79499834775925 754.454008102417,495.79499834775925 749.4540128707886,495.79499834775925 "/>
<path style="fill:none;stroke:#000000;stroke-width:1px;stroke-linecap:butt;stroke-linejoin:miter;stroke-opacity:1" d="M754.454008102417,500.79500848054886 C754.454008102417,495.79499834775925 754.454008102417,495.79501324892044 754.454008102417,490.795018017292 "/>
<path style="fill:none;stroke:#000000;stroke-width:1px;stroke-linecap:butt;stroke-linejoin:miter;stroke-opacity:1" d="M759.4540033340454,395.7950192093849 C754.454008102417,395.7950043082237 754.454008102417,395.7950043082237 749.4540128707886,395.7950043082237 "/>
<path style="fill:none;stroke:#000000;stroke-width:1px;stroke-linecap:butt;stroke-linejoin:miter;stroke-opacity:1" d="M754.454008102417,400.79500699043274 C754.454008102417,395.7949968576431 754.454008102417,395.7950117588043 754.454008102417,390.7950165271759 "/>
<path style="fill:none;stroke:#000000;stroke-width:1px;stroke-linecap:butt;stroke-linejoin:miter;stroke-opacity:1" d="M759.4540033340454,295.7950177192688 C754.454008102417,295.7950028181076 754.454008102417,295.7950028181076 749.4540128707886,295.7950028181076 "/>
<path style="fill:none;stroke:#000000;stroke-width:1px;stroke-linecap:butt;stroke-linejoin:miter;stroke-opacity:1" d="M754.454008102417,300.7950055003166 C754.454008102417,295.794995367527 754.454008102417,295.7950102686882 754.454008102417,290.7950150370598 "/>
<path style="fill:none;stroke:#000000;stroke-width:1px;stroke-linecap:butt;stroke-linejoin:miter;stroke-opacity:1" d="M759.4540033340454,195.79501622915268 C754.454008102417,195.79500132799149 754.454008102417,195.79500132799149 749.4540128707886,195.79500132799149 "/>
<path style="fill:none;stroke:#000000;stroke-width:1px;stroke-linecap:butt;stroke-linejoin:miter;stroke-opacity:1" d="M754.454008102417,200.7950040102005 C754.454008102417,195.7949938774109 754.454008102417,195.79500877857208 754.454008102417,190.79501354694366 "/>
<path style="fill:none;stroke:#000000;stroke-width:1px;stroke-linecap:butt;stroke-linejoin:miter;stroke-opacity:1" d="M759.4540033340454,95.79502218961716 C754.454008102417,95.79499238729477 754.454008102417,95.79499238729477 749.4540128707886,95.79499238729477 "/>
<path style="fill:none;stroke:#000000;stroke-width:1px;stroke-linecap:butt;stroke-linejoin:miter;stroke-opacity:1" d="M754.454008102417,100.79500252008438 C754.454008102417,95.79499238729477 754.454008102417,95.79500728845596 754.454008102417,90.79501205682755 "/>
<path style="fill:none;stroke:#000000;stroke-width:1px;stroke-linecap:butt;stroke-linejoin:miter;stroke-opacity:1" d="M559.453985452652,95.79502218961716 C554.453982770443,95.79499238729477 554.4539976716042,95.79499238729477 549.4540098905563,95.79499238729477 "/>
<path style="fill:none;stroke:#000000;stroke-width:1px;stroke-linecap:butt;stroke-linejoin:miter;stroke-opacity:1" d="M554.4539976716042,100.79500252008438 C554.4540125727654,95.79499238729477 554.4539976716042,95.79500728845596 554.4539976716042,90.79501205682755 "/>
<path style="fill:none;stroke:#000000;stroke-width:1px;stroke-linecap:butt;stroke-linejoin:miter;stroke-opacity:1" d="M459.45398768782616,95.79502218961716 C454.45398144407585,95.79499238729477 454.45399618148804,95.79499238729477 449.4540046751499,95.79499238729477 "/>
<path style="fill:none;stroke:#000000;stroke-width:1px;stroke-linecap:butt;stroke-linejoin:miter;stroke-opacity:1" d="M454.45399618148804,100.79500252008438 C454.4540109189002,95.79499238729477 454.45399618148804,95.79500728845596 454.45399618148804,90.79501205682755 "/>
<path style="fill:none;stroke:#000000;stroke-width:1px;stroke-linecap:butt;stroke-linejoin:miter;stroke-opacity:1" d="M359.45398247241974,95.79502218961716 C354.4539797902107,95.79499238729477 354.4539946913719,95.79499238729477 349.4540069103241,95.79499238729477 "/>
<path style="fill:none;stroke:#000000;stroke-width:1px;stroke-linecap:butt;stroke-linejoin:miter;stroke-opacity:1" d="M354.4539946913719,100.79500252008438 C354.4540095925331,95.79499238729477 354.4539946913719,95.79500728845596 354.4539946913719,90.79501205682755 "/>
<path style="fill:none;stroke:#000000;stroke-width:1px;stroke-linecap:butt;stroke-linejoin:miter;stroke-opacity:1" d="M264.45396876335144,95.79502218961716 C254.4539633989334,95.79499238729477 254.4539932012558,95.79499238729477 244.45401763916016,95.79499238729477 "/>
<path style="fill:none;stroke:#000000;stroke-width:1px;stroke-linecap:butt;stroke-linejoin:miter;stroke-opacity:1" d="M254.4539932012558,105.7949977517128 C254.4540230035782,95.79497748613358 254.4539932012558,95.79500728845596 254.4539932012558,85.79501682519913 "/>
<path style="fill:none;stroke:#000000;stroke-width:1px;stroke-linecap:butt;stroke-linejoin:miter;stroke-opacity:1" d="M159.4539794921875,95.79502218961716 C154.45398426055908,95.79499238729477 154.45398426055908,95.79499238729477 149.45398902893066,95.79499238729477 "/>
<path style="fill:none;stroke:#000000;stroke-width:1px;stroke-linecap:butt;stroke-linejoin:miter;stroke-opacity:1" d="M154.45398426055908,100.79500252008438 C154.45398426055908,95.79499238729477 154.45398426055908,95.79500728845596 154.45398426055908,90.79501205682755 "/>
<path style="fill:none;stroke:#000000;stroke-width:1px;stroke-linecap:butt;stroke-linejoin:miter;stroke-opacity:1" d="M159.4539794921875,195.79501622915268 C154.45398426055908,195.79500132799149 154.45398426055908,195.79500132799149 149.45398902893066,195.79500132799149 "/>
<path style="fill:none;stroke:#000000;stroke-width:1px;stroke-linecap:butt;stroke-linejoin:miter;stroke-opacity:1" d="M154.45398426055908,200.7950040102005 C154.45398426055908,195.7949938774109 154.45398426055908,195.79500877857208 154.45398426055908,190.79501354694366 "/>
<path style="fill:none;stroke:#000000;stroke-width:1px;stroke-linecap:butt;stroke-linejoin:miter;stroke-opacity:1" d="M159.4539794921875,295.7950177192688 C154.45398426055908,295.7950028181076 154.45398426055908,295.7950028181076 149.45398902893066,295.7950028181076 "/>
<path style="fill:none;stroke:#000000;stroke-width:1px;stroke-linecap:butt;stroke-linejoin:miter;stroke-opacity:1" d="M154.45398426055908,300.7950055003166 C154.45398426055908,295.794995367527 154.45398426055908,295.7950102686882 154.45398426055908,290.7950150370598 "/>
<path style="fill:none;stroke:#000000;stroke-width:1px;stroke-linecap:butt;stroke-linejoin:miter;stroke-opacity:1" d="M159.4539794921875,395.7950192093849 C154.45398426055908,395.7950043082237 154.45398426055908,395.7950043082237 149.45398902893066,395.7950043082237 "/>
<path style="fill:none;stroke:#000000;stroke-width:1px;stroke-linecap:butt;stroke-linejoin:miter;stroke-opacity:1" d="M154.45398426055908,400.79500699043274 C154.45398426055908,395.7949968576431 154.45398426055908,395.7950117588043 154.45398426055908,390.7950165271759 "/>
<path style="fill:none;stroke:#000000;stroke-width:1px;stroke-linecap:butt;stroke-linejoin:miter;stroke-opacity:1" d="M249.45386385917664,95.79502218961716 C249.45386385917664,93.03431385755539 251.69329977035522,90.794892847538 254.454008102417,90.794892847538 C257.21470153331757,90.794892847538 259.45412254333496,93.03432875871658 259.45412254333496,95.79502218961716 C259.45412254333496,98.55571562051773 257.21470153331757,100.79513663053513 254.454008102417,100.79513663053513 C251.69331467151642,100.79513663053513 249.45386385917664,98.55571562051773 249.45386385917664,95.79502218961716 Z "/>
<path style="fill:none;stroke:#000000;stroke-width:1px;stroke-linecap:butt;stroke-linejoin:miter;stroke-opacity:1" d="M264.45396876335144,495.79499834775925 C254.4539633989334,495.79496854543686 254.4539932012558,495.79496854543686 244.45401763916016,495.79496854543686 "/>
<path style="fill:none;stroke:#000000;stroke-width:1px;stroke-linecap:butt;stroke-linejoin:miter;stroke-opacity:1" d="M254.4539932012558,505.7949739098549 C254.4540230035782,495.79495364427567 254.4539932012558,495.79498344659805 254.4539932012558,485.7949929833412 "/>
<path style="fill:none;stroke:#000000;stroke-width:1px;stroke-linecap:butt;stroke-linejoin:miter;stroke-opacity:1" d="M249.45386385917664,495.79499834775925 C249.45386385917664,493.0342900156975 251.69329977035522,490.7948690056801 254.454008102417,490.7948690056801 C257.21470153331757,490.7948690056801 259.45412254333496,493.0343049168587 259.45412254333496,495.79499834775925 C259.45412254333496,498.5556917786598 257.21470153331757,500.7951127886772 254.454008102417,500.7951127886772 C251.69331467151642,500.7951127886772 249.45386385917664,498.5556917786598 249.45386385917664,495.79499834775925 Z "/>
<path style="fill:none;stroke:#000000;stroke-width:1px;stroke-linecap:butt;stroke-linejoin:miter;stroke-opacity:1" d="M664.4539449214935,495.79499834775925 C654.4539395570755,495.79496854543686 654.4539693593979,495.79496854543686 644.4539937973022,495.79496854543686 "/>
<path style="fill:none;stroke:#000000;stroke-width:1px;stroke-linecap:butt;stroke-linejoin:miter;stroke-opacity:1" d="M654.4539693593979,505.7949739098549 C654.4539991617203,495.79495364427567 654.4539693593979,495.79498344659805 654.4539693593979,485.7949929833412 "/>
<path style="fill:none;stroke:#000000;stroke-width:1px;stroke-linecap:butt;stroke-linejoin:miter;stroke-opacity:1" d="M649.4538400173187,495.79499834775925 C649.4538400173187,493.0342900156975 651.6932759284973,490.7948690056801 654.4539842605591,490.7948690056801 C657.2146776914597,490.7948690056801 659.454098701477,493.0343049168587 659.454098701477,495.79499834775925 C659.454098701477,498.5556917786598 657.2146776914597,500.7951127886772 654.4539842605591,500.7951127886772 C651.6932908296585,500.7951127886772 649.4538400173187,498.5556917786598 649.4538400173187,495.79499834775925 Z "/>
<path style="fill:none;stroke:#000000;stroke-width:1px;stroke-linecap:butt;stroke-linejoin:miter;stroke-opacity:1" d="M664.4539449214935,95.79502218961716 C654.4539395570755,95.79499238729477 654.4539693593979,95.79499238729477 644.4539937973022,95.79499238729477 "/>
<path style="fill:none;stroke:#000000;stroke-width:1px;stroke-linecap:butt;stroke-linejoin:miter;stroke-opacity:1" d="M654.4539693593979,105.7949977517128 C654.4539991617203,95.79497748613358 654.4539693593979,95.79500728845596 654.4539693593979,85.79501682519913 "/>
<path style="fill:none;stroke:#000000;stroke-width:1px;stroke-linecap:butt;stroke-linejoin:miter;stroke-opacity:1" d="M649.4538400173187,95.79502218961716 C649.4538400173187,93.03431385755539 651.6932759284973,90.794892847538 654.4539842605591,90.794892847538 C657.2146776914597,90.794892847538 659.454098701477,93.03432875871658 659.454098701477,95.79502218961716 C659.454098701477,98.55571562051773 657.2146776914597,100.79513663053513 654.4539842605591,100.79513663053513 C651.6932908296585,100.79513663053513 649.4538400173187,98.55571562051773 649.4538400173187,95.79502218961716 Z "/>
<path style="fill:none;stroke:#000000;stroke-width:1px;stroke-linecap:butt;stroke-linejoin:miter;stroke-opacity:1" d="M464.45396522432566,295.7950102686882 C454.45395235303783,295.7949804663658 454.4539818278622,295.7949804663658 444.4539991989732,295.7949804663658 "/>
<path style="fill:none;stroke:#000000;stroke-width:1px;stroke-linecap:butt;stroke-linejoin:miter;stroke-opacity:1" d="M454.4539818278622,305.79498583078384 C454.4540113026866,295.7949655652046 454.4539818278622,295.794995367527 454.4539818278622,285.7950049042702 "/>
<path style="fill:none;stroke:#000000;stroke-width:1px;stroke-linecap:butt;stroke-linejoin:miter;stroke-opacity:1" d="M449.4538579918444,295.7950028181076 C449.4538579918444,293.0343065932393 451.69329297170043,290.79488092660904 454.4539891965687,290.79488092660904 C457.214685421437,290.79488092660904 459.45412040129304,293.0343065932393 459.45412040129304,295.7950028181076 C459.45412040129304,298.5556990429759 457.214685421437,300.79512470960617 454.4539891965687,300.79512470960617 C451.69329297170043,300.79512470960617 449.4538579918444,298.5556990429759 449.4538579918444,295.7950028181076 Z "/>
<path style="fill:none;stroke:#000000;stroke-width:1px;stroke-linecap:butt;stroke-linejoin:miter;stroke-opacity:1" d="M59.454015254974365,45.7950102686882 C54.45399022102356,45.7950102686882 54.45402002334595,45.7950102686882 49.45402479171753,45.7950102686882 "/>
<path style="fill:none;stroke:#000000;stroke-width:1px;stroke-linecap:butt;stroke-linejoin:miter;stroke-opacity:1" d="M54.45402002334595,50.79500550031662 C54.45402002334595,45.7950102686882 54.45402002334595,45.7950102686882 54.45402002334595,40.795015037059784 "/>
<path style="fill:none;stroke:#000000;stroke-width:1px;stroke-linecap:butt;stroke-linejoin:miter;stroke-opacity:1" d="M49.45390558242798,45.7950102686882 C49.45390558242798,43.03433173894882 51.69334149360657,40.79489582777023 54.45402002334595,40.79489582777023 C57.21469855308533,40.79489582777023 59.454134464263916,43.03433173894882 59.454134464263916,45.7950102686882 C59.454134464263916,48.555703699588776 57.214728355407715,50.79515451192856 54.45402002334595,50.79515451192856 C51.69331169128418,50.79515451192856 49.45390558242798,48.555703699588776 49.45390558242798,45.7950102686882 Z "/>
<path style="fill:none;stroke:#000000;stroke-width:1px;stroke-linecap:butt;stroke-linejoin:miter;stroke-opacity:1" d="M59.454015254974365,545.7950102686882 C56.95398783683777,545.7950102686882 51.95402240753174,545.7950102686882 49.45402479171753,545.7950102686882 "/>
<path style="fill:none;stroke:#000000;stroke-width:1px;stroke-linecap:butt;stroke-linejoin:miter;stroke-opacity:1" d="M54.45402002334595,550.7950055003166 C54.45402002334595,548.2950078845024 54.45402002334595,543.295012652874 54.45402002334595,540.7950150370598 "/>
<path style="fill:none;stroke:#000000;stroke-width:1px;stroke-linecap:butt;stroke-linejoin:miter;stroke-opacity:1" d="M49.45390558242798,545.7950102686882 C49.45390558242798,543.0343168377876 51.69334149360657,540.7948958277702 54.45402002334595,540.7948958277702 C57.21469855308533,540.7948958277702 59.454134464263916,543.0343168377876 59.454134464263916,545.7950102686882 C59.454134464263916,548.5556887984276 57.21469855308533,550.7951247096062 54.45402002334595,550.7951247096062 C51.69334149360657,550.7951247096062 49.45390558242798,548.5556887984276 49.45390558242798,545.7950102686882 Z "/>
<path style="fill:none;stroke:#000000;stroke-width:1px;stroke-linecap:butt;stroke-linejoin:miter;stroke-opacity:1" d="M859.4540271759033,545.7950102686882 C854.4540021419525,545.7950102686882 854.4540319442749,545.7950102686882 849.4540367126465,545.7950102686882 "/>
<path style="fill:none;stroke:#000000;stroke-width:1px;stroke-linecap:butt;stroke-linejoin:miter;stroke-opacity:1" d="M854.4540319442749,550.7950055003166 C854.4540319442749,545.794995367527 854.4540319442749,545.7950102686882 854.4540319442749,540.7950150370598 "/>
<path style="fill:none;stroke:#000000;stroke-width:1px;stroke-linecap:butt;stroke-linejoin:miter;stroke-opacity:1" d="M849.4539175033569,545.7950102686882 C849.4539175033569,543.0343168377876 851.6933534145355,540.7948958277702 854.4540319442749,540.7948958277702 C857.2147104740143,540.7948958277702 859.4541463851929,543.0343168377876 859.4541463851929,545.7950102686882 C859.4541463851929,548.5556887984276 857.2147104740143,550.7951247096062 854.4540319442749,550.7951247096062 C851.6933534145355,550.7951247096062 849.4539175033569,548.5556887984276 849.4539175033569,545.7950102686882 Z "/>
<path style="fill:none;stroke:#000000;stroke-width:1px;stroke-linecap:butt;stroke-linejoin:miter;stroke-opacity:1" d="M859.4540271759033,45.7950102686882 C854.4540021419525,45.7950102686882 854.4540319442749,45.7950102686882 849.4540367126465,45.7950102686882 "/>
<path style="fill:none;stroke:#000000;stroke-width:1px;stroke-linecap:butt;stroke-linejoin:miter;stroke-opacity:1" d="M854.4540319442749,50.79500550031662 C854.4540319442749,45.7950102686882 854.4540319442749,45.7950102686882 854.4540319442749,40.795015037059784 "/>
<path style="fill:none;stroke:#000000;stroke-width:1px;stroke-linecap:butt;stroke-linejoin:miter;stroke-opacity:1" d="M849.4539175033569,45.7950102686882 C849.4539175033569,43.03433173894882 851.6933534145355,40.79489582777023 854.4540319442749,40.79489582777023 C857.2147104740143,40.79489582777023 859.4541463851929,43.03433173894882 859.4541463851929,45.7950102686882 C859.4541463851929,48.555703699588776 857.2147402763367,50.79515451192856 854.4540319442749,50.79515451192856 C851.6933236122131,50.79515451192856 849.4539175033569,48.555703699588776 849.4539175033569,45.7950102686882 Z "/>
<path style="fill:none;stroke:#000000;stroke-width:1px;stroke-linecap:butt;stroke-linejoin:miter;stroke-opacity:1" d="M459.45400212332606,45.7950102686882 C454.45399611240555,45.7950102686882 454.4540108498186,45.7950102686882 449.4540191106498,45.7950102686882 "/>
<path style="fill:none;stroke:#000000;stroke-width:1px;stroke-linecap:butt;stroke-linejoin:miter;stroke-opacity:1" d="M454.4540108498186,50.79500550031662 C454.4540255872316,45.7950102686882 454.4540108498186,45.7950102686882 454.4540108498186,40.795015037059784 "/>
<path style="fill:none;stroke:#000000;stroke-width:1px;stroke-linecap:butt;stroke-linejoin:miter;stroke-opacity:1" d="M449.4539017640054,45.7950102686882 C449.453905954957,43.03433173894882 451.6933334842324,40.79489582777023 454.4540255872316,40.79489582777023 C457.21471755206585,40.79489582777023 459.45414508134127,43.03433173894882 459.45414927229285,45.7950102686882 C459.45415346324444,48.555703699588776 457.2147257011384,50.79515451192856 454.4540255872316,50.79515451192856 C451.6933253351599,50.79515451192856 449.45389757305384,48.555703699588776 449.4539017640054,45.7950102686882 Z "/>
<path style="fill:none;stroke:#000000;stroke-width:1px;stroke-linecap:butt;stroke-linejoin:miter;stroke-opacity:1" d="M459.45400212332606,545.7950102686882 C454.45399611240555,545.7950102686882 454.4540108498186,545.7950102686882 449.4540191106498,545.7950102686882 "/>
<path style="fill:none;stroke:#000000;stroke-width:1px;stroke-linecap:butt;stroke-linejoin:miter;stroke-opacity:1" d="M454.4540108498186,550.7950055003166 C454.4540255872316,545.7950102686882 454.4540108498186,545.7950102686882 454.4540108498186,540.7950150370598 "/>
<path style="fill:none;stroke:#000000;stroke-width:1px;stroke-linecap:butt;stroke-linejoin:miter;stroke-opacity:1" d="M449.4539017640054,545.7950102686882 C449.4539017640054,543.0343168377876 451.6933334842324,540.7948958277702 454.4540255872316,540.7948958277702 C457.21471755206585,540.7948958277702 459.45414927229285,543.0343168377876 459.45414927229285,545.7950102686882 C459.45414927229285,548.5556887984276 457.21471755206585,550.7951247096062 454.4540255872316,550.7951247096062 C451.6933334842324,550.7951247096062 449.4539017640054,548.5556887984276 449.4539017640054,545.7950102686882 Z "/>
<path style="fill:none;stroke:#000000;stroke-width:1px;stroke-linecap:butt;stroke-linejoin:miter;stroke-opacity:1" d="M59.454015254974365,295.7950177192688 C56.954017639160156,295.7950177192688 51.95402240753174,295.7950177192688 49.45402479171753,295.7950177192688 "/>
<path style="fill:none;stroke:#000000;stroke-width:1px;stroke-linecap:butt;stroke-linejoin:miter;stroke-opacity:1" d="M54.45402002334595,300.7950129508972 C54.45402002334595,298.2950078845024 54.45402002334595,293.2950201034546 54.45402002334595,290.7950224876404 "/>
<path style="fill:none;stroke:#000000;stroke-width:1px;stroke-linecap:butt;stroke-linejoin:miter;stroke-opacity:1" d="M49.45390558242798,295.7950177192688 C49.45390558242798,293.0343284793198 51.69334149360657,290.79490327835083 54.45402002334595,290.79490327835083 C57.21469855308533,290.79490327835083 59.454134464263916,293.0343284793198 59.454134464263916,295.7950177192688 C59.454134464263916,298.5557111501694 57.214728355407715,300.79514706134796 54.45402002334595,300.79514706134796 C51.69331169128418,300.79514706134796 49.45390558242798,298.5557111501694 49.45390558242798,295.7950177192688 Z "/>
<path style="fill:none;stroke:#000000;stroke-width:1px;stroke-linecap:butt;stroke-linejoin:miter;stroke-opacity:1" d="M859.4539973735809,295.7950177192688 C854.4539723396301,295.7950177192688 854.4540021419525,295.7950177192688 849.4540069103241,295.7950177192688 "/>
<path style="fill:none;stroke:#000000;stroke-width:1px;stroke-linecap:butt;stroke-linejoin:miter;stroke-opacity:1" d="M854.4540021419525,300.7950129508972 C854.4540319442749,295.7950028181076 854.4540021419525,295.7950177192688 854.4540021419525,290.7950224876404 "/>
<path style="fill:none;stroke:#000000;stroke-width:1px;stroke-linecap:butt;stroke-linejoin:miter;stroke-opacity:1" d="M849.4539175033569,295.7950177192688 C849.4539175033569,293.0343284793198 851.6933534145355,290.79490327835083 854.4540319442749,290.79490327835083 C857.2147104740143,290.79490327835083 859.4541463851929,293.0343284793198 859.4541463851929,295.7950177192688 C859.4541463851929,298.5557111501694 857.2147402763367,300.79514706134796 854.4540319442749,300.79514706134796 C851.6933236122131,300.79514706134796 849.4539175033569,298.5557111501694 849.4539175033569,295.7950177192688 Z "/>
<path style="fill:none;stroke:#000000;stroke-width:1px;stroke-linecap:butt;stroke-linejoin:miter;stroke-opacity:1" d="M619.4539878368378,295.7950177192688 C614.4539777040482,295.7950028181076 614.4539926052094,295.7950028181076 609.4539973735809,295.7950028181076 "/>
<path style="fill:none;stroke:#000000;stroke-width:1px;stroke-linecap:butt;stroke-linejoin:miter;stroke-opacity:1" d="M299.45396518707275,295.7950177192688 C294.45396995544434,295.7950028181076 294.45396995544434,295.7950028181076 289.4539747238159,295.7950028181076 "/>
<path style="fill:none;stroke:#000000;stroke-width:1px;stroke-linecap:butt;stroke-linejoin:miter;stroke-opacity:1" d="M454.4539740753702,140.79497927427292 C454.453988812782,135.7949691414833 454.453988812782,135.7949840426445 454.453988812782,130.79498881101608 "/>
<path style="fill:none;stroke:#000000;stroke-width:1px;stroke-linecap:butt;stroke-linejoin:miter;stroke-opacity:1" d="M454.45404018199974,450.7950412631035 C454.4540261995667,455.7950513958931 454.4540261995667,455.7950364947319 454.4540269545432,460.7950317263603 "/>
</svg>