<?xml version="1.0" encoding="UTF-8" standalone="no"?>
<svg
   xmlns:dc="http://purl.org/dc/elements/1.1/"
   xmlns:cc="http://creativecommons.org/ns#"
   xmlns:rdf="http://www.w3.org/1999/02/22-rdf-syntax-ns#"
   xmlns:svg="http://www.w3.org/2000/svg"
   xmlns="http://www.w3.org/2000/svg"
   xmlns:sodipodi="http://sodipodi.sourceforge.net/DTD/sodipodi-0.dtd"
   xmlns:inkscape="http://www.inkscape.org/namespaces/inkscape"
   width="908.0000519752502mm"
   height="590.5000269412994mm"
   viewBox="0 0 908.0000519752502 590.5000269412994"
   id="svg2"
   version="1.1"
   inkscape:version="0.91 r13725"
   sodipodi:docname="TableTopSurface.svg">
  <metadata
     id="metadata30">
    <rdf:RDF>
      <cc:Work
         rdf:about="">
        <dc:format>image/svg+xml</dc:format>
        <dc:type
           rdf:resource="http://purl.org/dc/dcmitype/StillImage" />
      </cc:Work>
    </rdf:RDF>
  </metadata>
  <defs
     id="defs28" />
  <sodipodi:namedview
     pagecolor="#ffffff"
     bordercolor="#666666"
     borderopacity="1"
     objecttolerance="10"
     gridtolerance="10"
     guidetolerance="10"
     inkscape:pageopacity="0"
     inkscape:pageshadow="2"
     inkscape:window-width="1428"
     inkscape:window-height="828"
     id="namedview26"
     showgrid="false"
     inkscape:zoom="0.26689038"
     inkscape:cx="1593.2503"
     inkscape:cy="971.15369"
     inkscape:window-x="2"
     inkscape:window-y="0"
     inkscape:window-maximized="0"
     inkscape:current-layer="svg2" />
  <title
     id="title4">Bezier Curve : TableTopSurface.Cut</title>
  <desc
     id="desc6">This is an exported Bezier xml_path from Blender, using the ExportScript by maybites.ch and Craxic</desc>
  <path
     style="fill:none;stroke:#000000;stroke-width:1px;stroke-linecap:butt;stroke-linejoin:miter;stroke-opacity:1"
     d="M0.4540000259876251,591.2950205206871 C0.4540000259876251,424.29500991106033 0.4540000259876251,133.79500979185104 0.4540000259876251,0.7949935793876648 C333.45401921868324,0.7949935793876648 585.4540232717991,0.7949935793876648 908.4540520012379,0.7949935793876648 C908.4540520012379,133.79500979185104 908.4540520012379,424.29500991106033 908.4540520012379,591.2950205206871 C585.4540232717991,591.2950205206871 333.45401921868324,591.2950205206871 0.4540000259876251,591.2950205206871 Z "
     id="path8" />
  <path
     style="fill:none;stroke:#000000;stroke-width:1px;stroke-linecap:butt;stroke-linejoin:miter;stroke-opacity:1"
     d="M153.45462301373482,95.79500728845596 C153.45462301373482,95.2431725859642 153.902253895998,94.79551190137863 154.45407369732857,94.79551190137863 C155.00589349865913,94.79551190137863 155.45352438092232,95.2431725859642 155.45352438092232,95.79500728845596 C155.45352438092232,96.34684199094772 155.00589349865913,96.7944877743721 154.45407369732857,96.7944877743721 C153.902253895998,96.7944877743721 153.45462301373482,96.34684199094772 153.45462301373482,95.79500728845596 Z "
     id="path10" />
  <path
     style="fill:none;stroke:#000000;stroke-width:1px;stroke-linecap:butt;stroke-linejoin:miter;stroke-opacity:1"
     d="M453.45459372363985,95.79500728845596 C453.45459162816405,95.2431725859642 453.90221814485267,94.79551190137863 454.4540554884371,94.79551190137863 C455.00589284673333,94.79551190137863 455.4535194216296,95.2431725859642 455.4535173261538,95.79500728845596 C455.453515230678,96.34684199094772 455.0058887139894,96.7944877743721 454.4540554884371,96.7944877743721 C453.90222221938893,96.7944877743721 453.45459581911564,96.34684199094772 453.45459372363985,95.79500728845596 Z "
     id="path12" />
  <path
     style="fill:none;stroke:#000000;stroke-width:1px;stroke-linecap:butt;stroke-linejoin:miter;stroke-opacity:1"
     d="M453.45459372363985,495.79498344659805 C453.45459162816405,495.2431487441063 453.90221814485267,494.7954880595207 454.4540554884371,494.7954880595207 C455.00589284673333,494.7954880595207 455.4535194216296,495.2431487441063 455.4535173261538,495.79498344659805 C455.453515230678,496.3468181490898 455.0058887139894,496.7944639325142 454.4540554884371,496.7944639325142 C453.90222221938893,496.7944639325142 453.45459581911564,496.3468181490898 453.45459372363985,495.79498344659805 Z "
     id="path14" />
  <path
     style="fill:none;stroke:#000000;stroke-width:1px;stroke-linecap:butt;stroke-linejoin:miter;stroke-opacity:1"
     d="M614.454633384943,295.79501027608586 C614.454633384943,384.6275078654289 542.3103485405445,455.79560273885727 454.45402634360386,455.79560273885727 C366.597703486681,455.79560273885727 294.4534186422825,384.6275078654289 294.4534186422825,295.79501027608586 C294.4534186422825,206.96251267194748 362.28855589032173,152.4672972559929 417.2625977694988,140.15399092435837 C416.33706057071686,134.90501219034195 416.1114718914032,133.6279826760292 415.18593841791153,128.3790039420128 C414.26039749383926,123.13002520799637 417.78179892897606,118.17315393686295 422.9730952680111,117.25779050588608 C428.164389744401,116.34242707490921 433.168773368001,119.79597979784012 434.0943087041378,125.04495853185654 C435.0198440402746,130.29393726587296 435.25255174934864,131.61365860700607 436.17808708548546,136.8626373410225 C445.95865329355,135.60570949316025 462.96990459412336,135.4302483201027 472.72996494174004,136.8626373410225 C473.65550027787685,131.61365860700607 473.8882079869509,130.29393726587296 474.8137433230877,125.04495853185654 C475.7392786592245,119.79597979784012 480.7436622828245,116.34242707490921 485.9349567592144,117.25779050588608 C491.12625309824944,118.17315393686295 494.64765453338623,123.13002520799637 493.72211360931396,128.3790039420128 C492.7965801358223,133.6279826760292 492.57336446642876,134.90264290571213 491.6478272676468,140.15162163972855 C548.890306442976,153.84434336423874 614.454633384943,206.96251267194748 614.454633384943,295.79501027608586 Z "
     id="path16" />
  <path
     style="fill:none;stroke:#000000;stroke-width:1px;stroke-linecap:butt;stroke-linejoin:miter;stroke-opacity:1"
     d="M53.254714995622635,45.795025169849396 C53.254714995622635,45.13280266523361 53.791872054338455,44.595586001873016 54.454079657793045,44.595586001873016 C55.116287261247635,44.595586001873016 55.653444319963455,45.13280266523361 55.653444319963455,45.795025169849396 C55.653444319963455,46.457232773303986 55.116287261247635,46.994419634342194 54.454079657793045,46.994419634342194 C53.791872054338455,46.994419634342194 53.254714995622635,46.457232773303986 53.254714995622635,45.795025169849396 Z "
     id="path18" />
  <path
     style="fill:none;stroke:#000000;stroke-width:1px;stroke-linecap:butt;stroke-linejoin:miter;stroke-opacity:1"
     d="M53.254714995622635,545.7950102686882 C53.254714995622635,545.1328026652336 53.791872054338455,544.5956009030342 54.454079657793045,544.5956009030342 C55.116287261247635,544.5956009030342 55.653444319963455,545.1328026652336 55.653444319963455,545.7950102686882 C55.653444319963455,546.4572178721428 55.116287261247635,546.994404733181 54.454079657793045,546.994404733181 C53.791872054338455,546.994404733181 53.254714995622635,546.4572178721428 53.254714995622635,545.7950102686882 Z "
     id="path20" />
  <path
     style="fill:none;stroke:#000000;stroke-width:1px;stroke-linecap:butt;stroke-linejoin:miter;stroke-opacity:1"
     d="M853.2547269165516,45.795025169849396 C853.2547269165516,45.13280266523361 853.7918839752674,44.595586001873016 854.454091578722,44.595586001873016 C855.1162991821766,44.595586001873016 855.6534562408924,45.13280266523361 855.6534562408924,45.795025169849396 C855.6534562408924,46.457232773303986 855.1162991821766,46.994419634342194 854.454091578722,46.994419634342194 C853.7918839752674,46.994419634342194 853.2547269165516,46.457232773303986 853.2547269165516,45.795025169849396 Z "
     id="path22" />
  <path
     style="fill:none;stroke:#000000;stroke-width:1px;stroke-linecap:butt;stroke-linejoin:miter;stroke-opacity:1"
     d="M853.2547269165516,545.7950102686882 C853.2547269165516,545.1328026652336 853.7918839752674,544.5956009030342 854.454091578722,544.5956009030342 C855.1162991821766,544.5956009030342 855.6534562408924,545.1328026652336 855.6534562408924,545.7950102686882 C855.6534562408924,546.4572178721428 855.1162991821766,546.994404733181 854.454091578722,546.994404733181 C853.7918839752674,546.994404733181 853.2547269165516,546.4572178721428 853.2547269165516,545.7950102686882 Z "
     id="path24" />
  <path
     inkscape:connector-curvature="0"
     style="fill:none;stroke:#000000;stroke-width:1px;stroke-linecap:butt;stroke-linejoin:miter;stroke-opacity:1"
     d="m 472.61989,137.35372 c 0.0573,-0.32492 0.11636,-0.65988 0.17365,-0.9848 1.79378,-10.17303 4.24164,-4.93853 10.42662,-3.84795 6.18499,1.09059 10.27553,-2.99103 8.48176,7.18199 -0.0573,0.32492 -0.11636,0.65988 -0.17365,0.9848"
     id="path8-6" />
  <path
     inkscape:connector-curvature="0"
     style="fill:none;stroke:#000000;stroke-width:1px;stroke-linecap:butt;stroke-linejoin:miter;stroke-opacity:1"
     d="m 417.15964,140.68776 c -0.0573,-0.32492 -0.11635,-0.65988 -0.17365,-0.9848 -1.79377,-10.17302 2.29677,-6.0914 8.48175,-7.18199 6.18499,-1.09058 8.63285,-6.32508 10.42663,3.84795 0.0573,0.32492 0.11635,0.65988 0.17365,0.9848"
     id="path10-5" />
</svg>
